<svg width="494" height="341" viewBox="0 0 494 341" fill="none" xmlns="http://www.w3.org/2000/svg">
<g opacity="0.9">
<path d="M493.368 140.186C493.368 125.284 382.924 113.204 246.684 113.204C110.444 113.204 0 125.284 0 140.186C0 145.961 16.5993 151.313 44.8516 155.701V340.305H58.3071V157.605C103.557 163.454 171.149 167.168 246.684 167.168C322.843 167.168 390.931 163.392 436.182 157.46V340.305H449.637V155.524C477.204 151.169 493.368 145.884 493.368 140.186Z" fill="#3F3D56"/>
<path d="M277.589 140.749C305.329 140.749 327.817 135.205 327.817 128.365C327.817 121.526 305.329 115.981 277.589 115.981C249.848 115.981 227.36 121.526 227.36 128.365C227.36 135.205 249.848 140.749 277.589 140.749Z" fill="#F2F2F2"/>
<path d="M277.589 138.516C300.327 138.516 318.759 133.971 318.759 128.365C318.759 122.759 300.327 118.214 277.589 118.214C254.851 118.214 236.418 122.759 236.418 128.365C236.418 133.971 254.851 138.516 277.589 138.516Z" fill="#D0CDE1"/>
<path d="M90.6735 150.656C118.414 150.656 140.902 145.112 140.902 138.272C140.902 131.433 118.414 125.888 90.6735 125.888C62.9332 125.888 40.4452 131.433 40.4452 138.272C40.4452 145.112 62.9332 150.656 90.6735 150.656Z" fill="#F2F2F2"/>
<path d="M90.6735 148.423C113.411 148.423 131.844 143.878 131.844 138.272C131.844 132.666 113.411 128.121 90.6735 128.121C67.9355 128.121 49.5027 132.666 49.5027 138.272C49.5027 143.878 67.9355 148.423 90.6735 148.423Z" fill="#D0CDE1"/>
<path d="M276.42 127.491C289.644 127.491 300.365 125.793 300.365 123.7C300.365 121.606 289.644 119.909 276.42 119.909C263.195 119.909 252.474 121.606 252.474 123.7C252.474 125.793 263.195 127.491 276.42 127.491Z" fill="#9F616A"/>
<path d="M263.659 122.278C267.836 122.278 271.221 120.44 271.221 118.172C271.221 115.903 267.836 114.065 263.659 114.065C259.483 114.065 256.098 115.903 256.098 118.172C256.098 120.44 259.483 122.278 263.659 122.278Z" fill="#7C3AED"/>
<path d="M260.824 122.278C265 122.278 268.385 120.44 268.385 118.172C268.385 115.903 265 114.065 260.824 114.065C256.648 114.065 253.262 115.903 253.262 118.172C253.262 120.44 256.648 122.278 260.824 122.278Z" fill="#7C3AED"/>
<path d="M293.906 123.226C298.082 123.226 301.468 121.387 301.468 119.119C301.468 116.851 298.082 115.012 293.906 115.012C289.73 115.012 286.344 116.851 286.344 119.119C286.344 121.387 289.73 123.226 293.906 123.226Z" fill="#7C3AED"/>
<path d="M276.577 122.278C280.753 122.278 284.139 120.44 284.139 118.172C284.139 115.903 280.753 114.065 276.577 114.065C272.401 114.065 269.016 115.903 269.016 118.172C269.016 120.44 272.401 122.278 276.577 122.278Z" fill="#7C3AED"/>
<path d="M289.495 122.278C293.671 122.278 297.057 120.44 297.057 118.172C297.057 115.903 293.671 114.065 289.495 114.065C285.319 114.065 281.933 115.903 281.933 118.172C281.933 120.44 285.319 122.278 289.495 122.278Z" fill="#7C3AED"/>
<path d="M299.262 115.644C285.596 120.294 270.263 120.294 253.262 115.644V115.004C253.259 110.17 255.11 105.52 258.431 102.016C261.752 98.5111 266.29 96.4209 271.105 96.1771C275.158 95.9727 279.218 95.9779 283.27 96.1928C287.603 96.4458 291.674 98.3524 294.648 101.521C297.622 104.689 299.273 108.879 299.262 113.23V115.644Z" fill="#3F3D56"/>
<path d="M292.553 133.053C282.453 134.076 272.276 134.076 262.177 133.053C259.781 132.817 257.558 131.697 255.94 129.91C254.322 128.124 253.423 125.798 253.42 123.384H301.31C301.306 125.798 300.408 128.124 298.79 129.91C297.171 131.697 294.948 132.817 292.553 133.053Z" fill="#3F3D56"/>
<path d="M269.961 102.06C268.863 102.519 267.685 102.755 266.495 102.755C265.305 102.755 264.127 102.519 263.029 102.06C264.127 101.602 265.305 101.365 266.495 101.365C267.685 101.365 268.863 101.602 269.961 102.06Z" fill="#D0CDE1"/>
<path d="M276.892 104.904C275.794 105.362 274.616 105.599 273.426 105.599C272.237 105.599 271.059 105.362 269.961 104.904C271.059 104.445 272.237 104.209 273.426 104.209C274.616 104.209 275.794 104.445 276.892 104.904Z" fill="#D0CDE1"/>
<path d="M277.522 99.8491C276.424 100.308 275.246 100.544 274.057 100.544C272.867 100.544 271.689 100.308 270.591 99.8491C271.689 99.3903 272.867 99.1541 274.057 99.1541C275.246 99.1541 276.424 99.3903 277.522 99.8491Z" fill="#D0CDE1"/>
<path d="M290.44 99.8491C289.342 100.308 288.164 100.544 286.974 100.544C285.785 100.544 284.607 100.308 283.509 99.8491C284.607 99.3903 285.785 99.1541 286.974 99.1541C288.164 99.1541 289.342 99.3903 290.44 99.8491Z" fill="#D0CDE1"/>
<path d="M286.974 102.692C285.876 103.151 284.698 103.387 283.509 103.387C282.319 103.387 281.141 103.151 280.043 102.692C281.141 102.233 282.319 101.997 283.509 101.997C284.698 101.997 285.876 102.233 286.974 102.692Z" fill="#D0CDE1"/>
<path d="M90.3279 137.398C103.552 137.398 114.273 135.701 114.273 133.607C114.273 131.513 103.552 129.816 90.3279 129.816C77.1033 129.816 66.3827 131.513 66.3827 133.607C66.3827 135.701 77.1033 137.398 90.3279 137.398Z" fill="#9F616A"/>
<path d="M77.5677 132.185C81.7439 132.185 85.1293 130.347 85.1293 128.079C85.1293 125.811 81.7439 123.972 77.5677 123.972C73.3915 123.972 70.006 125.811 70.006 128.079C70.006 130.347 73.3915 132.185 77.5677 132.185Z" fill="#7C3AED"/>
<path d="M74.7321 132.185C78.9082 132.185 82.2937 130.347 82.2937 128.079C82.2937 125.811 78.9082 123.972 74.7321 123.972C70.5559 123.972 67.1704 125.811 67.1704 128.079C67.1704 130.347 70.5559 132.185 74.7321 132.185Z" fill="#7C3AED"/>
<path d="M107.814 133.133C111.99 133.133 115.376 131.295 115.376 129.026C115.376 126.758 111.99 124.92 107.814 124.92C103.638 124.92 100.253 126.758 100.253 129.026C100.253 131.295 103.638 133.133 107.814 133.133Z" fill="#7C3AED"/>
<path d="M90.4855 132.185C94.6616 132.185 98.0471 130.347 98.0471 128.079C98.0471 125.811 94.6616 123.972 90.4855 123.972C86.3093 123.972 82.9238 125.811 82.9238 128.079C82.9238 130.347 86.3093 132.185 90.4855 132.185Z" fill="#7C3AED"/>
<path d="M103.403 132.185C107.579 132.185 110.965 130.347 110.965 128.079C110.965 125.811 107.579 123.972 103.403 123.972C99.2271 123.972 95.8417 125.811 95.8417 128.079C95.8417 130.347 99.2271 132.185 103.403 132.185Z" fill="#7C3AED"/>
<path d="M113.17 125.551C99.5042 130.201 84.1709 130.201 67.1704 125.551V124.912C67.1675 120.077 69.0181 115.427 72.3393 111.923C75.6604 108.418 80.198 106.328 85.0133 106.084C89.066 105.88 93.1265 105.885 97.1787 106.1C101.511 106.353 105.582 108.26 108.556 111.428C111.53 114.597 113.181 118.787 113.17 123.138V125.551Z" fill="#3F3D56"/>
<path d="M106.461 142.96C96.3615 143.983 86.1849 143.983 76.0853 142.96C73.6895 142.724 71.4667 141.604 69.8484 139.818C68.2301 138.031 67.3318 135.705 67.328 133.291H115.218C115.215 135.705 114.316 138.031 112.698 139.818C111.08 141.604 108.857 142.724 106.461 142.96Z" fill="#3F3D56"/>
<path d="M83.8691 111.968C82.7709 112.426 81.593 112.663 80.4034 112.663C79.2137 112.663 78.0358 112.426 76.9376 111.968C78.0358 111.509 79.2137 111.273 80.4034 111.273C81.593 111.273 82.7709 111.509 83.8691 111.968Z" fill="#D0CDE1"/>
<path d="M90.8005 114.811C89.7024 115.269 88.5245 115.506 87.3348 115.506C86.1451 115.506 84.9672 115.269 83.869 114.811C84.9672 114.352 86.1451 114.116 87.3348 114.116C88.5245 114.116 89.7024 114.352 90.8005 114.811Z" fill="#D0CDE1"/>
<path d="M91.4307 109.756C90.3325 110.215 89.1546 110.451 87.9649 110.451C86.7753 110.451 85.5974 110.215 84.4992 109.756C85.5974 109.297 86.7753 109.061 87.9649 109.061C89.1546 109.061 90.3325 109.297 91.4307 109.756Z" fill="#D0CDE1"/>
<path d="M104.349 109.756C103.25 110.215 102.072 110.451 100.883 110.451C99.6931 110.451 98.5152 110.215 97.417 109.756C98.5152 109.297 99.6931 109.061 100.883 109.061C102.072 109.061 103.25 109.297 104.349 109.756Z" fill="#D0CDE1"/>
<path d="M100.883 112.599C99.7847 113.058 98.6067 113.294 97.417 113.294C96.2274 113.294 95.0495 113.058 93.9513 112.599C95.0495 112.141 96.2274 111.904 97.417 111.904C98.6067 111.904 99.7847 112.141 100.883 112.599Z" fill="#D0CDE1"/>
<path d="M320.799 125.01L320.915 127.567L321.062 130.884C321.062 130.884 305.869 131.745 302.808 134.987C302.737 135.057 302.672 135.132 302.613 135.212L296.527 133.877L296.512 130.871C296.512 130.871 296.596 130.824 296.759 130.736C296.797 130.716 296.843 130.692 296.89 130.667C304.337 127.01 312.507 125.077 320.799 125.01Z" fill="#7C3AED"/>
<path opacity="0.1" d="M320.799 125.01L320.915 127.567C314.177 127.776 301.427 131.803 301.427 131.803L296.759 130.736C304.238 127.031 312.457 125.074 320.799 125.01Z" fill="black"/>
<path opacity="0.1" d="M296.89 130.667L301.427 131.803L302.808 134.987C302.737 135.057 302.672 135.132 302.613 135.213L296.527 133.877L296.512 130.871C296.512 130.871 296.596 130.824 296.759 130.736C296.796 130.716 296.843 130.692 296.89 130.667Z" fill="white"/>
<path d="M137.178 135.742L137.293 138.3L137.441 141.616C137.441 141.616 122.247 142.477 119.187 145.72C119.116 145.79 119.05 145.865 118.991 145.945L112.906 144.61L112.891 141.604C112.891 141.604 112.975 141.557 113.138 141.468C113.175 141.449 113.222 141.424 113.268 141.399C120.715 137.743 128.886 135.81 137.178 135.742Z" fill="#7C3AED"/>
<path opacity="0.1" d="M137.177 135.742L137.293 138.3C130.556 138.508 117.805 142.535 117.805 142.535L113.138 141.468C120.617 137.764 128.836 135.806 137.177 135.742Z" fill="black"/>
<path opacity="0.1" d="M113.268 141.4L117.805 142.535L119.187 145.72C119.116 145.79 119.051 145.865 118.992 145.945L112.906 144.61L112.891 141.604C112.891 141.604 112.975 141.557 113.138 141.469C113.175 141.449 113.222 141.424 113.268 141.4Z" fill="white"/>
<path d="M412.304 48.4103C411.007 47.1119 409.488 46.0592 407.818 45.303V13.2234C407.818 12.8473 407.669 12.4865 407.404 12.2206C407.138 11.9546 406.779 11.8052 406.403 11.8052H398.483C398.108 11.8052 397.748 11.9546 397.483 12.2206C397.217 12.4865 397.068 12.8473 397.068 13.2234V44.6877C394.205 45.6398 391.714 47.4719 389.948 49.924C388.182 52.3761 387.231 55.3235 387.23 58.3481V127.163C387.23 127.991 387.393 128.811 387.709 129.576C388.025 130.342 388.488 131.037 389.072 131.622C389.656 132.208 390.349 132.672 391.112 132.989C391.875 133.306 392.693 133.469 393.519 133.469H410.485C412.146 133.469 413.738 132.808 414.912 131.631C416.086 130.454 416.746 128.857 416.746 127.192V59.1592C416.748 57.1624 416.357 55.1849 415.594 53.3403C414.832 51.4956 413.714 49.8202 412.304 48.4103Z" fill="#3F3D56"/>
<path d="M416.746 68.4357H387.23V107.529H416.746V68.4357Z" fill="#7C3AED"/>
<path d="M175.974 76.2547C175.193 74.5832 174.577 73.4009 174.361 72.994C161.112 76.2721 152.272 73.502 150.878 73.012C150.197 74.3028 145.941 82.5535 144.221 90.4637C142.667 97.5988 143.569 102.382 146.902 104.681L147 104.751L147.022 104.766C150.701 107.196 154.21 109.349 157.451 111.163C157.888 111.407 158.3 111.633 158.687 111.842L158.728 111.865L158.757 111.902C159.202 112.464 159.616 113.05 159.998 113.657C160.714 114.661 161.149 115.84 161.257 117.07V152.507L161.033 152.512C152.582 152.685 147.351 154.121 147.351 155.353C147.351 156.704 153.624 158.21 162.624 158.21C171.625 158.21 177.897 156.704 177.897 155.353C177.897 154.14 172.755 152.711 164.447 152.519L164.223 152.514L164.432 119.733C164.437 117.514 164.952 115.325 165.936 113.337C166.104 113.003 166.284 112.678 166.472 112.372C166.622 112.125 166.782 111.885 166.946 111.658L166.977 111.616L167.022 111.592C167.438 111.364 167.88 111.117 168.347 110.851L168.402 110.821C171.47 109.084 174.775 107.047 178.228 104.765C181.31 102.728 182.383 98.6099 181.417 92.5263C180.497 86.7258 177.95 80.4761 175.974 76.2547Z" fill="#D0CDE1"/>
<path d="M176.766 104.022C173.147 106.414 170.158 108.208 167.873 109.501H167.871C164.537 109.273 161.189 109.367 157.874 109.782C155.531 108.471 152.371 106.591 148.483 104.022C148.446 103.998 148.409 103.973 148.372 103.946V103.944C144.806 101.484 144.718 96.2751 145.878 90.9486C148.829 90.6198 153.535 90.7637 159.857 93.0282C167.344 95.7099 175.182 94.1934 179.724 92.8145C180.47 97.5142 180.015 101.875 176.766 104.022Z" fill="#7C3AED"/>
<path d="M155.246 89.021C155.812 89.021 156.271 88.561 156.271 87.9936C156.271 87.4261 155.812 86.9661 155.246 86.9661C154.68 86.9661 154.221 87.4261 154.221 87.9936C154.221 88.561 154.68 89.021 155.246 89.021Z" fill="#7C3AED"/>
<path d="M152.377 98.4739C152.943 98.4739 153.401 98.0139 153.401 97.4464C153.401 96.879 152.943 96.4189 152.377 96.4189C151.811 96.4189 151.352 96.879 151.352 97.4464C151.352 98.0139 151.811 98.4739 152.377 98.4739Z" fill="white"/>
<path d="M157.705 91.076C158.045 91.076 158.32 90.8 158.32 90.4595C158.32 90.119 158.045 89.843 157.705 89.843C157.366 89.843 157.091 90.119 157.091 90.4595C157.091 90.8 157.366 91.076 157.705 91.076Z" fill="#7C3AED"/>
<path d="M160.165 102.789C160.504 102.789 160.78 102.513 160.78 102.173C160.78 101.832 160.504 101.556 160.165 101.556C159.825 101.556 159.55 101.832 159.55 102.173C159.55 102.513 159.825 102.789 160.165 102.789Z" fill="white"/>
<path d="M155.861 103.406C156.2 103.406 156.476 103.13 156.476 102.789C156.476 102.449 156.2 102.173 155.861 102.173C155.521 102.173 155.246 102.449 155.246 102.789C155.246 103.13 155.521 103.406 155.861 103.406Z" fill="white"/>
<path d="M168.363 82.8562C168.703 82.8562 168.978 82.5802 168.978 82.2397C168.978 81.8993 168.703 81.6232 168.363 81.6232C168.023 81.6232 167.748 81.8993 167.748 82.2397C167.748 82.5802 168.023 82.8562 168.363 82.8562Z" fill="#7C3AED"/>
<path d="M224.044 42.8463C223.263 41.1747 222.646 39.9924 222.43 39.5855C209.182 42.8637 200.342 40.0935 198.948 39.6036C198.266 40.8944 194.011 49.145 192.291 57.0553C190.737 64.1904 191.639 68.9736 194.971 71.2723L195.07 71.3429L195.092 71.3574C198.77 73.7878 202.28 75.9404 205.521 77.7546C205.958 77.9983 206.37 78.2248 206.756 78.434L206.798 78.4565L206.827 78.4936C207.272 79.0557 207.686 79.6416 208.068 80.2489C208.784 81.253 209.219 82.4313 209.326 83.6611V119.099L209.103 119.104C200.652 119.277 195.421 120.713 195.421 121.945C195.421 123.296 201.693 124.802 210.694 124.802C219.695 124.802 225.967 123.296 225.967 121.945C225.967 120.731 220.825 119.303 212.517 119.11L212.293 119.105L212.502 86.3246C212.507 84.1052 213.021 81.9167 214.005 79.9288C214.173 79.5946 214.354 79.2696 214.541 78.9634C214.692 78.717 214.852 78.4766 215.016 78.2496L215.046 78.2079L215.091 78.1831C215.507 77.9553 215.949 77.7083 216.417 77.4423L216.472 77.4124C219.54 75.6753 222.845 73.6383 226.297 71.3567C229.38 69.3194 230.453 65.2015 229.487 59.1179C228.567 53.3173 226.019 47.0677 224.044 42.8463Z" fill="#D0CDE1"/>
<path d="M224.836 70.6139C221.216 73.0058 218.228 74.7998 215.943 76.0924H215.941C212.607 75.8642 209.259 75.9585 205.943 76.3739C203.601 75.0628 200.44 73.1826 196.552 70.6139C196.515 70.5892 196.478 70.5645 196.442 70.5378V70.5358C192.875 68.076 192.787 62.8667 193.947 57.5402C196.899 57.2114 201.604 57.3553 207.927 59.6198C215.414 62.3015 223.251 60.785 227.793 59.4061C228.539 64.1058 228.084 68.4664 224.836 70.6139Z" fill="#7C3AED"/>
<path d="M203.316 55.6127C203.882 55.6127 204.34 55.1527 204.34 54.5852C204.34 54.0178 203.882 53.5577 203.316 53.5577C202.75 53.5577 202.291 54.0178 202.291 54.5852C202.291 55.1527 202.75 55.6127 203.316 55.6127Z" fill="#7C3AED"/>
<path d="M200.446 65.0654C201.012 65.0654 201.471 64.6054 201.471 64.038C201.471 63.4705 201.012 63.0105 200.446 63.0105C199.88 63.0105 199.422 63.4705 199.422 64.038C199.422 64.6054 199.88 65.0654 200.446 65.0654Z" fill="white"/>
<path d="M205.775 57.6676C206.115 57.6676 206.39 57.3916 206.39 57.0511C206.39 56.7107 206.115 56.4346 205.775 56.4346C205.435 56.4346 205.16 56.7107 205.16 57.0511C205.16 57.3916 205.435 57.6676 205.775 57.6676Z" fill="#7C3AED"/>
<path d="M208.235 69.3809C208.574 69.3809 208.849 69.1049 208.849 68.7644C208.849 68.4239 208.574 68.1479 208.235 68.1479C207.895 68.1479 207.62 68.4239 207.62 68.7644C207.62 69.1049 207.895 69.3809 208.235 69.3809Z" fill="white"/>
<path d="M203.931 69.9974C204.27 69.9974 204.545 69.7214 204.545 69.3809C204.545 69.0404 204.27 68.7644 203.931 68.7644C203.591 68.7644 203.316 69.0404 203.316 69.3809C203.316 69.7214 203.591 69.9974 203.931 69.9974Z" fill="white"/>
<path d="M216.433 49.4478C216.772 49.4478 217.047 49.1718 217.047 48.8313C217.047 48.4909 216.772 48.2148 216.433 48.2148C216.093 48.2148 215.818 48.4909 215.818 48.8313C215.818 49.1718 216.093 49.4478 216.433 49.4478Z" fill="#7C3AED"/>
<path d="M409 2.16393H408.311V1.40001C408.311 1.0287 408.149 0.672604 407.863 0.410048C407.576 0.147492 407.187 0 406.781 0H398.219C397.813 0 397.424 0.147492 397.137 0.410048C396.85 0.672604 396.689 1.0287 396.689 1.40001V2.16393H396V5.40984H396.689V22H408.311V5.40984H409V2.16393Z" fill="#7C3AED"/>
</g>
</svg>
