<svg width="673" height="368" viewBox="0 0 673 368" fill="none" xmlns="http://www.w3.org/2000/svg">
<g clip-path="url(#clip0_34_1041)">
<path d="M90.5004 191.808H68.9622C68.2049 191.808 67.4786 192.109 66.943 192.644C66.4075 193.18 66.1067 193.906 66.1067 194.664V204.119C66.1067 204.876 66.4075 205.603 66.943 206.138C67.4786 206.674 68.2049 206.975 68.9622 206.975H72.5314V221.142H86.9312V206.975H90.5004C91.2577 206.975 91.984 206.674 92.5195 206.138C93.055 205.603 93.3559 204.876 93.3559 204.119V194.664C93.3559 193.906 93.055 193.18 92.5195 192.644C91.984 192.109 91.2577 191.808 90.5004 191.808Z" fill="#7C3AED"/>
<path d="M112.073 278.341C98.8826 259.037 92.1393 236.052 92.8093 212.68C92.8213 212.141 92.6463 211.614 92.314 211.189C91.9817 210.764 91.5127 210.468 90.9864 210.349V206.264H68.2393V210.293H67.9259C67.605 210.293 67.2878 210.36 66.9938 210.488C66.6999 210.617 66.4356 210.805 66.2174 211.04C65.9993 211.275 65.832 211.553 65.726 211.856C65.6199 212.159 65.5775 212.48 65.6013 212.8C67.3933 237.785 61.342 260.19 47.4473 280.017C46.6477 281.156 46.2392 282.525 46.2831 283.916L48.7704 360.866C48.8302 362.583 49.5504 364.21 50.7808 365.408C52.0113 366.606 53.6567 367.282 55.3738 367.296H106.824C108.561 367.282 110.224 366.59 111.458 365.368C112.692 364.146 113.4 362.49 113.432 360.753L114.39 286.04C114.419 283.298 113.61 280.612 112.073 278.341Z" fill="#3F3D56"/>
<path opacity="0.2" d="M86.0105 194.889C86.0105 196.523 85.3614 198.09 84.2061 199.245C83.0507 200.401 81.4837 201.05 79.8498 201.05C78.2159 201.05 76.6489 200.401 75.4935 199.245C74.3382 198.09 73.6891 196.523 73.6891 194.889" fill="black"/>
<path d="M103.928 303.902H97.6981C97.1033 300.042 95.1468 296.522 92.1825 293.979C89.2182 291.436 85.4419 290.038 81.5367 290.038C77.6314 290.038 73.8551 291.436 70.8909 293.979C67.9266 296.522 65.9701 300.042 65.3753 303.902H59.1446C58.4817 303.902 57.8266 304.045 57.2243 304.322C56.622 304.599 56.0866 305.003 55.655 305.506C55.2234 306.01 54.9056 306.6 54.7236 307.238C54.5415 307.875 54.4994 308.545 54.6002 309.2L61.3677 353.195H100.227L108.447 309.348C108.572 308.684 108.549 308 108.379 307.346C108.209 306.692 107.898 306.084 107.466 305.564C107.035 305.044 106.494 304.625 105.883 304.338C105.271 304.051 104.604 303.902 103.928 303.902Z" fill="#7C3AED"/>
<path d="M627.491 233.186L625.996 292.927L624.145 367.009H561.147L558.978 280.213L557.802 233.186H627.491Z" fill="#E6E6E6"/>
<path d="M596.827 201.403H587.907V319.613H596.827V201.403Z" fill="#7C3AED"/>
<path d="M623.03 278.201L621.343 363.112H563.921L561.944 263.629C567.117 262.176 572.535 261.804 577.858 262.536C583.182 263.268 588.297 265.089 592.886 267.885C602.48 273.561 613.258 276.616 623.03 278.201Z" fill="#3F3D56"/>
<path d="M578.136 287.759H569.951V295.946H578.136V287.759Z" fill="#E6E6E6"/>
<path d="M583.711 271.031H575.526V279.218H583.711V271.031Z" fill="#E6E6E6"/>
<path d="M601.287 282.612L594.713 277.735L589.837 284.311L596.412 289.187L601.287 282.612Z" fill="#E6E6E6"/>
<path d="M616.076 297.117L609.502 292.24L604.626 298.815L611.2 303.692L616.076 297.117Z" fill="#E6E6E6"/>
<path d="M590.988 305.481L584.414 300.604L579.538 307.179L586.112 312.056L590.988 305.481Z" fill="#E6E6E6"/>
<path d="M610.208 267.757C611.131 267.757 611.88 267.008 611.88 266.084C611.88 265.16 611.131 264.411 610.208 264.411C609.284 264.411 608.535 265.16 608.535 266.084C608.535 267.008 609.284 267.757 610.208 267.757Z" fill="#3F3D56"/>
<path d="M576.2 256.605C577.123 256.605 577.872 255.856 577.872 254.932C577.872 254.008 577.123 253.259 576.2 253.259C575.276 253.259 574.527 254.008 574.527 254.932C574.527 255.856 575.276 256.605 576.2 256.605Z" fill="#3F3D56"/>
<path d="M604.632 244.895C605.556 244.895 606.305 244.147 606.305 243.223C606.305 242.299 605.556 241.55 604.632 241.55C603.709 241.55 602.96 242.299 602.96 243.223C602.96 244.147 603.709 244.895 604.632 244.895Z" fill="#3F3D56"/>
<path d="M336.885 366.498C438.075 366.498 520.106 284.455 520.106 183.249C520.106 82.0435 438.075 0 336.885 0C235.695 0 153.664 82.0435 153.664 183.249C153.664 284.455 235.695 366.498 336.885 366.498Z" fill="#7C3AED"/>
<path opacity="0.2" d="M336.885 317.003C305.945 317.003 275.963 306.274 252.046 286.642C228.129 267.011 211.758 239.693 205.723 209.343C199.687 178.993 204.359 147.489 218.944 120.199C233.529 92.9082 257.124 71.5198 285.709 59.6779C314.294 47.8361 346.099 46.2734 375.707 55.2562C405.314 64.239 430.892 83.2115 448.081 108.941C465.27 134.67 473.008 165.565 469.975 196.36C466.942 227.156 453.327 255.947 431.449 277.828C419.06 290.287 404.323 300.165 388.091 306.889C371.859 313.614 354.454 317.051 336.885 317.003ZM336.885 57.7442C267.692 57.7442 211.399 114.045 211.399 183.249C211.399 252.453 267.692 308.754 336.885 308.754C406.078 308.754 462.371 252.453 462.371 183.249C462.371 114.045 406.078 57.7442 336.885 57.7442Z" fill="black"/>
<path d="M336.885 312.879C408.467 312.879 466.495 254.842 466.495 183.249C466.495 111.657 408.467 53.6196 336.885 53.6196C265.303 53.6196 207.275 111.657 207.275 183.249C207.275 254.842 265.303 312.879 336.885 312.879Z" fill="#3F3D56"/>
<path d="M240.497 131.416C239.514 129.49 238.92 127.39 238.749 125.235C238.579 123.08 238.834 120.912 239.502 118.856C240.169 116.799 241.235 114.895 242.639 113.251C244.042 111.607 245.756 110.256 247.683 109.274C249.609 108.293 251.709 107.702 253.864 107.533C256.019 107.365 258.187 107.622 260.242 108.292C262.297 108.962 264.2 110.03 265.843 111.436C267.485 112.841 268.834 114.557 269.813 116.484L306.431 188.402C307.414 190.328 308.008 192.428 308.179 194.583C308.349 196.738 308.094 198.906 307.426 200.962C306.759 203.019 305.693 204.923 304.289 206.567C302.886 208.211 301.172 209.562 299.245 210.543C297.319 211.524 295.219 212.116 293.064 212.285C290.909 212.453 288.741 212.195 286.686 211.526C284.631 210.856 282.728 209.788 281.085 208.382C279.443 206.977 278.094 205.261 277.115 203.333L240.497 131.416Z" fill="#FF6584"/>
<path opacity="0.2" d="M244.581 139.437L242.891 136.118C251.326 129.563 261.23 124.743 272.207 121.187L273.897 124.506C262.017 126.98 251.91 131.559 244.581 139.437Z" fill="black"/>
<path opacity="0.2" d="M252.468 154.927L250.778 151.608C259.213 145.053 269.117 140.233 280.094 136.677L281.784 139.996C269.904 142.47 259.797 147.049 252.468 154.927Z" fill="black"/>
<path opacity="0.2" d="M260.355 170.417L258.665 167.098C267.1 160.543 277.004 155.723 287.981 152.167L289.671 155.486C277.791 157.96 267.684 162.539 260.355 170.417Z" fill="black"/>
<path opacity="0.2" d="M268.242 185.907L266.552 182.588C274.987 176.033 284.891 171.213 295.868 167.657L297.558 170.976C285.678 173.45 275.571 178.029 268.242 185.907Z" fill="black"/>
<path opacity="0.2" d="M276.129 201.397L274.439 198.078C282.874 191.523 292.778 186.703 303.755 183.147L305.445 186.466C293.565 188.94 283.458 193.519 276.129 201.397Z" fill="black"/>
<path d="M213.025 158.339C212.042 156.414 211.449 154.313 211.278 152.158C211.107 150.003 211.363 147.836 212.03 145.78C212.698 143.724 213.764 141.819 215.168 140.175C216.571 138.531 218.285 137.18 220.211 136.199C222.137 135.218 224.238 134.627 226.393 134.458C228.548 134.289 230.715 134.547 232.77 135.217C234.825 135.886 236.728 136.954 238.37 138.36C240.013 139.765 241.362 141.481 242.341 143.408L278.959 215.326C280.933 219.213 281.284 223.725 279.933 227.871C278.583 232.017 275.642 235.457 271.758 237.436C267.873 239.414 263.361 239.77 259.215 238.424C255.068 237.077 251.625 234.14 249.643 230.257L213.025 158.339Z" fill="#FF6584"/>
<path opacity="0.2" d="M217.109 166.361L215.419 163.041C223.854 156.487 233.758 151.666 244.735 148.11L246.425 151.429C234.545 153.904 224.438 158.483 217.109 166.361Z" fill="black"/>
<path opacity="0.2" d="M224.996 181.851L223.306 178.531C231.741 171.977 241.645 167.156 252.622 163.6L254.312 166.919C242.432 169.394 232.325 173.973 224.996 181.851Z" fill="black"/>
<path opacity="0.2" d="M232.883 197.341L231.193 194.021C239.628 187.467 249.532 182.646 260.509 179.09L262.199 182.409C250.319 184.884 240.212 189.463 232.883 197.341Z" fill="black"/>
<path opacity="0.2" d="M240.77 212.831L239.08 209.511C247.515 202.957 257.419 198.136 268.396 194.58L270.086 197.899C258.206 200.374 248.099 204.953 240.77 212.831Z" fill="black"/>
<path opacity="0.2" d="M248.657 228.32L246.967 225.001C255.402 218.446 265.306 213.626 276.283 210.07L277.973 213.389C266.093 215.864 255.986 220.443 248.657 228.32Z" fill="black"/>
<path d="M423.488 187.374L423.604 187.374C427.548 187.407 431.41 186.25 434.687 184.055C437.964 181.86 440.504 178.727 441.974 175.067C444.998 167.421 446.522 159.265 446.463 151.043C446.257 116.243 417.95 87.6931 383.158 87.2117C368.34 87.0043 353.907 91.9278 342.305 101.148C330.702 110.368 322.645 123.316 319.498 137.799C316.351 152.282 318.308 167.408 325.037 180.613C331.767 193.817 342.855 204.288 356.422 210.25C360.007 211.838 363.988 212.305 367.844 211.59C371.699 210.875 375.248 209.011 378.026 206.244C383.984 200.253 391.068 195.502 398.871 192.263C406.674 189.025 415.04 187.363 423.488 187.374Z" fill="#E6E6E6"/>
<path d="M390.497 167.929C402.21 167.929 411.705 158.432 411.705 146.717C411.705 135.002 402.21 125.505 390.497 125.505C378.783 125.505 369.288 135.002 369.288 146.717C369.288 158.432 378.783 167.929 390.497 167.929Z" fill="#F9A825"/>
<path d="M344.402 144.332C345.782 144.332 346.9 143.213 346.9 141.833C346.9 140.453 345.782 139.334 344.402 139.334C343.022 139.334 341.903 140.453 341.903 141.833C341.903 143.213 343.022 144.332 344.402 144.332Z" fill="#3F3D56"/>
<path d="M261.923 146.689C263.303 146.689 264.421 145.57 264.421 144.19C264.421 142.81 263.303 141.691 261.923 141.691C260.543 141.691 259.424 142.81 259.424 144.19C259.424 145.57 260.543 146.689 261.923 146.689Z" fill="#3F3D56"/>
<path d="M357.718 118.434C359.098 118.434 360.216 117.316 360.216 115.935C360.216 114.555 359.098 113.437 357.718 113.437C356.338 113.437 355.219 114.555 355.219 115.935C355.219 117.316 356.338 118.434 357.718 118.434Z" fill="#3F3D56"/>
<path d="M357.647 190.462C359.027 190.462 360.145 189.343 360.145 187.963C360.145 186.583 359.027 185.464 357.647 185.464C356.267 185.464 355.148 186.583 355.148 187.963C355.148 189.343 356.267 190.462 357.647 190.462Z" fill="#3F3D56"/>
<path d="M407.134 113.273C408.514 113.273 409.633 112.155 409.633 110.774C409.633 109.394 408.514 108.276 407.134 108.276C405.754 108.276 404.636 109.394 404.636 110.774C404.636 112.155 405.754 113.273 407.134 113.273Z" fill="#3F3D56"/>
<path d="M245.711 181.624C247.091 181.624 248.21 180.505 248.21 179.125C248.21 177.745 247.091 176.626 245.711 176.626C244.331 176.626 243.213 177.745 243.213 179.125C243.213 180.505 244.331 181.624 245.711 181.624Z" fill="#3F3D56"/>
<path d="M263.974 217.566C265.354 217.566 266.473 216.447 266.473 215.067C266.473 213.687 265.354 212.568 263.974 212.568C262.594 212.568 261.476 213.687 261.476 215.067C261.476 216.447 262.594 217.566 263.974 217.566Z" fill="#3F3D56"/>
<path d="M378.714 229.209C383.92 229.209 388.14 224.988 388.14 219.781C388.14 214.575 383.92 210.354 378.714 210.354C373.508 210.354 369.288 214.575 369.288 219.781C369.288 224.988 373.508 229.209 378.714 229.209Z" fill="#FF6584"/>
<path opacity="0.2" d="M385.783 220.37C385.783 222.246 385.038 224.044 383.713 225.37C382.387 226.696 380.589 227.441 378.714 227.441C376.839 227.441 375.04 226.696 373.715 225.37C372.389 224.044 371.644 222.246 371.644 220.37" fill="black"/>
<path opacity="0.2" d="M371.644 219.192C371.644 217.317 372.389 215.518 373.715 214.192C375.04 212.866 376.839 212.121 378.714 212.121C380.589 212.121 382.387 212.866 383.713 214.192C385.038 215.518 385.783 217.317 385.783 219.192" fill="black"/>
<path d="M375.179 217.424C375.504 217.424 375.768 217.029 375.768 216.54C375.768 216.052 375.504 215.657 375.179 215.657C374.853 215.657 374.59 216.052 374.59 216.54C374.59 217.029 374.853 217.424 375.179 217.424Z" fill="#FF6584"/>
<path d="M378.714 216.246C379.039 216.246 379.303 215.85 379.303 215.362C379.303 214.874 379.039 214.478 378.714 214.478C378.388 214.478 378.125 214.874 378.125 215.362C378.125 215.85 378.388 216.246 378.714 216.246Z" fill="#FF6584"/>
<path d="M378.714 223.906C379.039 223.906 379.303 223.51 379.303 223.022C379.303 222.534 379.039 222.138 378.714 222.138C378.388 222.138 378.125 222.534 378.125 223.022C378.125 223.51 378.388 223.906 378.714 223.906Z" fill="#FF6584"/>
<path d="M382.249 219.192C382.574 219.192 382.838 218.796 382.838 218.308C382.838 217.82 382.574 217.424 382.249 217.424C381.923 217.424 381.659 217.82 381.659 218.308C381.659 218.796 381.923 219.192 382.249 219.192Z" fill="#FF6584"/>
<path d="M381.659 225.673C381.985 225.673 382.249 225.278 382.249 224.79C382.249 224.301 381.985 223.906 381.659 223.906C381.334 223.906 381.07 224.301 381.07 224.79C381.07 225.278 381.334 225.673 381.659 225.673Z" fill="#FF6584"/>
<path d="M374.59 222.727C374.915 222.727 375.179 222.332 375.179 221.844C375.179 221.355 374.915 220.96 374.59 220.96C374.264 220.96 374.001 221.355 374.001 221.844C374.001 222.332 374.264 222.727 374.59 222.727Z" fill="#FF6584"/>
<path d="M397.566 203.872C402.772 203.872 406.992 199.651 406.992 194.444C406.992 189.238 402.772 185.017 397.566 185.017C392.36 185.017 388.14 189.238 388.14 194.444C388.14 199.651 392.36 203.872 397.566 203.872Z" fill="#FF6584"/>
<path opacity="0.2" d="M404.636 195.034C404.636 196.909 403.891 198.707 402.565 200.033C401.239 201.359 399.441 202.104 397.566 202.104C395.691 202.104 393.893 201.359 392.567 200.033C391.241 198.707 390.496 196.909 390.496 195.034" fill="black"/>
<path opacity="0.2" d="M390.496 193.855C390.496 191.98 391.241 190.182 392.567 188.856C393.893 187.529 395.691 186.785 397.566 186.785C399.441 186.785 401.239 187.529 402.565 188.856C403.891 190.182 404.636 191.98 404.636 193.855" fill="black"/>
<path d="M394.031 192.088C394.357 192.088 394.62 191.692 394.62 191.204C394.62 190.716 394.357 190.32 394.031 190.32C393.706 190.32 393.442 190.716 393.442 191.204C393.442 191.692 393.706 192.088 394.031 192.088Z" fill="#FF6584"/>
<path d="M397.566 190.909C397.891 190.909 398.155 190.513 398.155 190.025C398.155 189.537 397.891 189.141 397.566 189.141C397.241 189.141 396.977 189.537 396.977 190.025C396.977 190.513 397.241 190.909 397.566 190.909Z" fill="#FF6584"/>
<path d="M397.566 198.569C397.891 198.569 398.155 198.173 398.155 197.685C398.155 197.197 397.891 196.801 397.566 196.801C397.241 196.801 396.977 197.197 396.977 197.685C396.977 198.173 397.241 198.569 397.566 198.569Z" fill="#FF6584"/>
<path d="M401.101 193.855C401.426 193.855 401.69 193.46 401.69 192.971C401.69 192.483 401.426 192.088 401.101 192.088C400.775 192.088 400.512 192.483 400.512 192.971C400.512 193.46 400.775 193.855 401.101 193.855Z" fill="#FF6584"/>
<path d="M400.512 200.337C400.837 200.337 401.101 199.941 401.101 199.453C401.101 198.965 400.837 198.569 400.512 198.569C400.186 198.569 399.923 198.965 399.923 199.453C399.923 199.941 400.186 200.337 400.512 200.337Z" fill="#FF6584"/>
<path d="M393.442 197.391C393.768 197.391 394.031 196.995 394.031 196.507C394.031 196.019 393.768 195.623 393.442 195.623C393.117 195.623 392.853 196.019 392.853 196.507C392.853 196.995 393.117 197.391 393.442 197.391Z" fill="#FF6584"/>
<path d="M416.418 216.835C421.624 216.835 425.845 212.614 425.845 207.407C425.845 202.201 421.624 197.98 416.418 197.98C411.212 197.98 406.992 202.201 406.992 207.407C406.992 212.614 411.212 216.835 416.418 216.835Z" fill="#7C3AED"/>
<path opacity="0.2" d="M423.488 207.997C423.488 209.872 422.743 211.67 421.417 212.996C420.092 214.322 418.293 215.067 416.418 215.067C414.543 215.067 412.745 214.322 411.419 212.996C410.094 211.67 409.349 209.872 409.349 207.997" fill="black"/>
<path opacity="0.2" d="M409.349 206.818C409.349 204.943 410.094 203.145 411.419 201.819C412.745 200.493 414.543 199.748 416.418 199.748C418.293 199.748 420.092 200.493 421.417 201.819C422.743 203.145 423.488 204.943 423.488 206.818" fill="black"/>
<path d="M412.884 205.051C413.209 205.051 413.473 204.655 413.473 204.167C413.473 203.679 413.209 203.283 412.884 203.283C412.558 203.283 412.294 203.679 412.294 204.167C412.294 204.655 412.558 205.051 412.884 205.051Z" fill="#7C3AED"/>
<path d="M416.418 203.872C416.744 203.872 417.007 203.476 417.007 202.988C417.007 202.5 416.744 202.104 416.418 202.104C416.093 202.104 415.829 202.5 415.829 202.988C415.829 203.476 416.093 203.872 416.418 203.872Z" fill="#7C3AED"/>
<path d="M416.418 211.532C416.744 211.532 417.007 211.136 417.007 210.648C417.007 210.16 416.744 209.764 416.418 209.764C416.093 209.764 415.829 210.16 415.829 210.648C415.829 211.136 416.093 211.532 416.418 211.532Z" fill="#7C3AED"/>
<path d="M419.953 206.818C420.279 206.818 420.542 206.423 420.542 205.934C420.542 205.446 420.279 205.051 419.953 205.051C419.628 205.051 419.364 205.446 419.364 205.934C419.364 206.423 419.628 206.818 419.953 206.818Z" fill="#7C3AED"/>
<path d="M419.364 213.3C419.689 213.3 419.953 212.904 419.953 212.416C419.953 211.928 419.689 211.532 419.364 211.532C419.039 211.532 418.775 211.928 418.775 212.416C418.775 212.904 419.039 213.3 419.364 213.3Z" fill="#7C3AED"/>
<path d="M412.294 210.354C412.62 210.354 412.884 209.958 412.884 209.47C412.884 208.982 412.62 208.586 412.294 208.586C411.969 208.586 411.705 208.982 411.705 209.47C411.705 209.958 411.969 210.354 412.294 210.354Z" fill="#7C3AED"/>
<path d="M369.287 218.014C374.493 218.014 378.714 213.793 378.714 208.586C378.714 203.379 374.493 199.158 369.287 199.158C364.082 199.158 359.861 203.379 359.861 208.586C359.861 213.793 364.082 218.014 369.287 218.014Z" fill="#7C3AED"/>
<path opacity="0.2" d="M376.357 209.175C376.357 211.05 375.612 212.849 374.286 214.175C372.961 215.501 371.163 216.246 369.288 216.246C367.413 216.246 365.614 215.501 364.289 214.175C362.963 212.849 362.218 211.05 362.218 209.175" fill="black"/>
<path opacity="0.2" d="M362.218 207.997C362.218 206.121 362.963 204.323 364.289 202.997C365.614 201.671 367.413 200.926 369.288 200.926C371.163 200.926 372.961 201.671 374.286 202.997C375.612 204.323 376.357 206.121 376.357 207.997" fill="black"/>
<path d="M365.753 206.229C366.078 206.229 366.342 205.833 366.342 205.345C366.342 204.857 366.078 204.461 365.753 204.461C365.427 204.461 365.164 204.857 365.164 205.345C365.164 205.833 365.427 206.229 365.753 206.229Z" fill="#7C3AED"/>
<path d="M369.287 205.051C369.613 205.051 369.877 204.655 369.877 204.167C369.877 203.679 369.613 203.283 369.287 203.283C368.962 203.283 368.698 203.679 368.698 204.167C368.698 204.655 368.962 205.051 369.287 205.051Z" fill="#7C3AED"/>
<path d="M369.287 212.711C369.613 212.711 369.877 212.315 369.877 211.827C369.877 211.339 369.613 210.943 369.287 210.943C368.962 210.943 368.698 211.339 368.698 211.827C368.698 212.315 368.962 212.711 369.287 212.711Z" fill="#7C3AED"/>
<path d="M372.822 207.997C373.148 207.997 373.411 207.601 373.411 207.113C373.411 206.625 373.148 206.229 372.822 206.229C372.497 206.229 372.233 206.625 372.233 207.113C372.233 207.601 372.497 207.997 372.822 207.997Z" fill="#7C3AED"/>
<path d="M372.233 214.478C372.559 214.478 372.822 214.082 372.822 213.594C372.822 213.106 372.559 212.71 372.233 212.71C371.908 212.71 371.644 213.106 371.644 213.594C371.644 214.082 371.908 214.478 372.233 214.478Z" fill="#7C3AED"/>
<path d="M365.164 211.532C365.489 211.532 365.753 211.136 365.753 210.648C365.753 210.16 365.489 209.764 365.164 209.764C364.838 209.764 364.574 210.16 364.574 210.648C364.574 211.136 364.838 211.532 365.164 211.532Z" fill="#7C3AED"/>
<path d="M390.496 222.138C395.702 222.138 399.923 217.917 399.923 212.71C399.923 207.504 395.702 203.283 390.496 203.283C385.29 203.283 381.07 207.504 381.07 212.71C381.07 217.917 385.29 222.138 390.496 222.138Z" fill="#7C3AED"/>
<path opacity="0.2" d="M397.566 213.3C397.566 214.228 397.383 215.148 397.028 216.006C396.673 216.863 396.152 217.643 395.495 218.3C394.839 218.956 394.06 219.477 393.202 219.832C392.344 220.188 391.425 220.371 390.496 220.371C389.568 220.371 388.649 220.188 387.791 219.832C386.933 219.477 386.154 218.956 385.497 218.3C384.841 217.643 384.32 216.863 383.965 216.006C383.61 215.148 383.427 214.228 383.427 213.3" fill="black"/>
<path opacity="0.2" d="M383.427 212.121C383.427 211.193 383.61 210.273 383.965 209.415C384.32 208.558 384.841 207.778 385.497 207.122C386.154 206.465 386.933 205.944 387.791 205.589C388.649 205.233 389.568 205.051 390.496 205.051C391.425 205.051 392.344 205.233 393.202 205.589C394.06 205.944 394.839 206.465 395.495 207.122C396.152 207.778 396.673 208.558 397.028 209.415C397.383 210.273 397.566 211.193 397.566 212.121" fill="black"/>
<path d="M386.962 210.354C387.287 210.354 387.551 209.958 387.551 209.47C387.551 208.982 387.287 208.586 386.962 208.586C386.636 208.586 386.372 208.982 386.372 209.47C386.372 209.958 386.636 210.354 386.962 210.354Z" fill="#7C3AED"/>
<path d="M390.496 209.175C390.822 209.175 391.085 208.779 391.085 208.291C391.085 207.803 390.822 207.407 390.496 207.407C390.171 207.407 389.907 207.803 389.907 208.291C389.907 208.779 390.171 209.175 390.496 209.175Z" fill="#7C3AED"/>
<path d="M390.496 216.835C390.822 216.835 391.085 216.439 391.085 215.951C391.085 215.463 390.822 215.067 390.496 215.067C390.171 215.067 389.907 215.463 389.907 215.951C389.907 216.439 390.171 216.835 390.496 216.835Z" fill="#7C3AED"/>
<path d="M394.031 212.121C394.357 212.121 394.62 211.726 394.62 211.237C394.62 210.749 394.357 210.354 394.031 210.354C393.706 210.354 393.442 210.749 393.442 211.237C393.442 211.726 393.706 212.121 394.031 212.121Z" fill="#7C3AED"/>
<path d="M393.442 218.603C393.768 218.603 394.031 218.207 394.031 217.719C394.031 217.231 393.768 216.835 393.442 216.835C393.117 216.835 392.853 217.231 392.853 217.719C392.853 218.207 393.117 218.603 393.442 218.603Z" fill="#7C3AED"/>
<path d="M386.372 215.657C386.698 215.657 386.962 215.261 386.962 214.773C386.962 214.285 386.698 213.889 386.372 213.889C386.047 213.889 385.783 214.285 385.783 214.773C385.783 215.261 386.047 215.657 386.372 215.657Z" fill="#7C3AED"/>
<path d="M405.225 232.155C410.431 232.155 414.651 227.934 414.651 222.727C414.651 217.521 410.431 213.3 405.225 213.3C400.019 213.3 395.799 217.521 395.799 222.727C395.799 227.934 400.019 232.155 405.225 232.155Z" fill="#FF6584"/>
<path opacity="0.2" d="M412.294 223.317C412.294 225.192 411.55 226.99 410.224 228.316C408.898 229.642 407.1 230.387 405.225 230.387C403.35 230.387 401.552 229.642 400.226 228.316C398.9 226.99 398.155 225.192 398.155 223.317" fill="black"/>
<path opacity="0.2" d="M398.155 222.138C398.155 220.263 398.9 218.464 400.226 217.138C401.552 215.812 403.35 215.067 405.225 215.067C407.1 215.067 408.898 215.812 410.224 217.138C411.55 218.464 412.294 220.263 412.294 222.138" fill="black"/>
<path d="M401.69 220.37C402.015 220.37 402.279 219.975 402.279 219.487C402.279 218.998 402.015 218.603 401.69 218.603C401.365 218.603 401.101 218.998 401.101 219.487C401.101 219.975 401.365 220.37 401.69 220.37Z" fill="#FF6584"/>
<path d="M405.225 219.192C405.55 219.192 405.814 218.796 405.814 218.308C405.814 217.82 405.55 217.424 405.225 217.424C404.9 217.424 404.636 217.82 404.636 218.308C404.636 218.796 404.9 219.192 405.225 219.192Z" fill="#FF6584"/>
<path d="M405.225 226.852C405.55 226.852 405.814 226.456 405.814 225.968C405.814 225.48 405.55 225.084 405.225 225.084C404.9 225.084 404.636 225.48 404.636 225.968C404.636 226.456 404.9 226.852 405.225 226.852Z" fill="#FF6584"/>
<path d="M408.76 222.138C409.085 222.138 409.349 221.742 409.349 221.254C409.349 220.766 409.085 220.37 408.76 220.37C408.434 220.37 408.171 220.766 408.171 221.254C408.171 221.742 408.434 222.138 408.76 222.138Z" fill="#FF6584"/>
<path d="M408.17 228.62C408.496 228.62 408.76 228.224 408.76 227.736C408.76 227.248 408.496 226.852 408.17 226.852C407.845 226.852 407.581 227.248 407.581 227.736C407.581 228.224 407.845 228.62 408.17 228.62Z" fill="#FF6584"/>
<path d="M401.101 225.673C401.426 225.673 401.69 225.278 401.69 224.79C401.69 224.301 401.426 223.906 401.101 223.906C400.775 223.906 400.512 224.301 400.512 224.79C400.512 225.278 400.775 225.673 401.101 225.673Z" fill="#FF6584"/>
<path d="M284.005 189.283C285.385 189.283 286.503 188.165 286.503 186.785C286.503 185.404 285.385 184.286 284.005 184.286C282.625 184.286 281.506 185.404 281.506 186.785C281.506 188.165 282.625 189.283 284.005 189.283Z" fill="#3F3D56"/>
<path d="M351.919 277.488L291.914 260.845L294.212 252.305L354.218 268.949L351.919 277.488Z" fill="#F9A825"/>
<path d="M343.122 274.634C322.574 278.568 301.466 278.568 280.917 274.634V265.782C301.512 269.196 322.528 269.196 343.122 265.782V274.634Z" fill="#F9A825"/>
<path d="M349.517 248.078C328.969 252.012 307.861 252.012 287.312 248.078V239.226C307.907 242.64 328.923 242.64 349.517 239.226V248.078Z" fill="#F9A825"/>
<path d="M371.028 258.7C350.479 262.635 329.371 262.635 308.822 258.7V249.848C329.417 253.262 350.433 253.262 371.028 249.848V258.7Z" fill="#F9A825"/>
<path d="M376.26 268.733C355.711 272.667 334.603 272.667 314.055 268.733V259.881C334.649 263.294 355.665 263.294 376.26 259.881V268.733Z" fill="#F9A825"/>
<path d="M394.502 281.842L333.13 292.152L331.707 283.419L393.077 273.108L394.502 281.842Z" fill="#F9A825"/>
<path d="M385.334 282.977C368.319 295.244 349.143 304.189 328.811 309.343L325.17 301.3C345.324 295.656 364.417 286.749 381.693 274.933L385.334 282.977Z" fill="#F9A825"/>
<path d="M380.221 256.136C363.206 268.403 344.03 277.348 323.698 282.502L320.057 274.459C340.211 268.815 359.304 259.908 376.58 248.092L380.221 256.136Z" fill="#F9A825"/>
<path d="M404.136 256.671C387.121 268.938 367.945 277.883 347.613 283.037L343.972 274.994C364.125 269.35 383.219 260.443 400.495 248.627L404.136 256.671Z" fill="#F9A825"/>
<path d="M413.017 263.569C396.002 275.836 376.826 284.781 356.494 289.935L352.853 281.892C373.006 276.248 392.1 267.341 409.376 255.525L413.017 263.569Z" fill="#F9A825"/>
<path d="M338.652 246.296H335.707V249.243H338.652V246.296Z" fill="#00BF71"/>
<path d="M347.49 297.559H344.544V300.505H347.49V297.559Z" fill="#00BF71"/>
<path d="M300.359 246.296H297.413V249.243H300.359V246.296Z" fill="#00BF71"/>
<path d="M368.698 282.828H365.753V285.774H368.698V282.828Z" fill="#00BF71"/>
<path d="M370.466 265.741H367.52V268.687H370.466V265.741Z" fill="#00BF71"/>
<path d="M321.873 257.674L318.461 255.359L317.138 257.309L320.55 259.625L321.873 257.674Z" fill="#00BF71"/>
<path d="M356.632 264.156L353.22 261.84L351.897 263.79L355.309 266.106L356.632 264.156Z" fill="#00BF71"/>
<path d="M314.215 275.351L310.802 273.035L309.479 274.986L312.892 277.301L314.215 275.351Z" fill="#00BF71"/>
<path d="M335.819 275.18L338.134 271.767L336.184 270.443L333.869 273.856L335.819 275.18Z" fill="#00BF71"/>
<path d="M351.725 279.304L354.041 275.891L352.091 274.568L349.775 277.981L351.725 279.304Z" fill="#00BF71"/>
<path d="M394.147 265.162L396.463 261.749L394.512 260.426L392.197 263.839L394.147 265.162Z" fill="#00BF71"/>
<path d="M673 366.302H0V368H673V366.302Z" fill="#3F3D56"/>
</g>
<defs>
<clipPath id="clip0_34_1041">
<rect width="673" height="368" fill="white"/>
</clipPath>
</defs>
</svg>
