<svg width="484" height="505" viewBox="0 0 484 505" fill="none" xmlns="http://www.w3.org/2000/svg">
<path opacity="0.1" d="M237.592 505C368.81 505 475.184 501.205 475.184 496.523C475.184 491.842 368.81 488.047 237.592 488.047C106.374 488.047 0 491.842 0 496.523C0 501.205 106.374 505 237.592 505Z" fill="#7C3AED"/>
<path opacity="0.1" d="M175.13 15.3893C190.267 1.88673 214.026 -0.865164 235.653 0.21043C303.582 3.58884 364.901 36.418 417.941 73.5514C437.143 86.9942 456.048 101.482 468.512 119.993C493.884 157.678 486.358 209.883 451.077 240.928C439.073 251.491 424.522 259.588 409.583 266.766C383.021 279.528 354.361 289.774 324.214 292.69C302.715 294.77 280.953 293.079 259.58 290.177C199.867 282.071 141.254 264.145 92.1274 233.475C70.5809 220.024 50.2721 203.3 41.391 181.539C32.5099 159.778 38.1937 132.203 60.1949 119.322C69.2944 113.995 80.1739 111.589 90.8255 109.33C106.504 106.004 122.434 102.726 136.583 95.9655C151.196 88.9827 168.5 75.4793 165.607 60.0237C162.502 43.4403 160.011 28.876 175.13 15.3893Z" fill="#7C3AED"/>
<path d="M331.411 191.515C330.376 189.511 324.907 177.052 324.907 177.052L315.743 153.282C315.743 153.282 309.239 143.258 309.239 141.396C309.239 139.535 297.414 132.088 297.414 132.088C297.414 132.088 287.807 129.225 287.068 128.938C286.329 128.652 274.947 124.883 274.947 124.883C274.947 124.883 270.466 118.983 269.827 120.524L269.827 120.528C269.803 120.489 269.78 120.455 269.756 120.415C268.841 118.702 268.261 116.83 268.048 114.899C268.023 114.728 268.003 114.546 267.981 114.368C270.933 112.365 273.352 109.671 275.03 106.521C276.707 103.371 277.592 99.859 277.608 96.2892C277.606 95.3494 277.543 94.4107 277.419 93.479C277.5 93.4282 277.585 93.3834 277.673 93.345C277.857 93.2651 277.81 93.2 277.675 93.1322C277.722 93.1079 277.768 93.082 277.814 93.0622C278.059 92.9558 277.896 92.8752 277.659 92.7794L277.673 92.7723C278.006 92.6272 277.585 92.5312 277.246 92.3778C277.228 92.2787 277.211 92.1793 277.191 92.0806C277.266 91.892 277.312 91.693 277.327 91.4906C277.357 91.5055 277.385 91.5217 277.416 91.5356C277.499 91.1665 277.497 90.7836 277.41 90.4155C277.389 90.4903 277.363 90.5637 277.333 90.6355C277.354 90.3017 277.286 89.9684 277.134 89.6702C276.983 89.3721 276.755 89.12 276.473 88.9403C276.456 88.9255 276.437 88.9096 276.42 88.8946L277.047 82.4704C286.29 82.0331 287.911 66.2914 285.803 65.4168C283.695 64.5423 285.803 62.6474 285.803 58.8577C285.803 55.068 278.831 50.8411 278.831 50.8411C278.831 50.8411 275.912 52.2987 271.371 45.0108C266.831 37.7229 250.128 36.5569 248.993 38.4517C247.858 40.3466 240.399 42.8245 230.669 45.5938C220.94 48.3632 222.724 59.8781 224.345 62.3559C225.681 64.4045 226.463 66.7649 226.615 69.2065C226.615 70.6641 229.696 76.7858 229.696 76.7858C228.725 78.9072 231.198 90.5281 231.93 93.8309C231.919 93.9325 231.906 94.0336 231.896 94.1356C231.89 94.1456 231.882 94.154 231.876 94.1642C231.841 94.2175 231.809 94.273 231.781 94.3302C231.624 94.6725 231.572 95.0539 231.632 95.4258C231.578 95.8323 231.635 96.2458 231.796 96.6229C231.851 99.7346 232.571 102.798 233.905 105.609C235.24 108.42 237.159 110.913 239.534 112.921C239.546 113.12 239.557 113.32 239.568 113.524C239.704 116.222 239.781 119.413 239.639 122.466C239.631 122.622 239.62 122.775 239.611 122.93C239.075 123.039 238.572 123.272 238.142 123.611C237.712 123.95 237.368 124.386 237.138 124.883C236.221 126.647 230.9 129.368 230.9 129.368C230.9 129.368 221.588 129.797 220.701 131.516C219.815 133.234 206.364 138.962 206.364 138.962C206.364 138.962 199.269 143.115 200.304 147.84C200.844 150.309 199.327 154.145 197.754 157.247C194.465 155.999 191.04 155.144 187.55 154.7L195.086 161.917C194.928 162.163 194.835 162.303 194.835 162.303L190.548 177.482C190.548 177.482 189.07 182.78 187.592 184.069C186.114 185.358 188.922 197.1 188.922 197.1C188.922 197.1 187.296 205.405 185.966 207.553C184.636 209.701 188.036 215 188.036 215L194.835 230.465L212.867 235.047C212.867 235.047 214.069 235.302 216.011 235.718C215.95 236.088 215.887 236.456 215.824 236.823C214.955 241.749 213.813 246.28 212.424 247.505C209.024 250.512 209.172 263.973 209.172 263.973L209.32 283.018C209.32 283.018 210.503 306.503 209.911 307.362C209.538 307.904 210.287 308.788 212.263 309.583C212.206 309.937 212.151 310.295 212.099 310.661C211.543 314.556 211.295 319.001 212.572 320.965C213.126 322.028 213.43 323.204 213.459 324.402C213.459 326.264 216.267 330.13 216.267 330.13C216.267 330.13 214.05 346.025 217.745 351.466C221.44 356.908 224.544 366.789 222.771 369.08C222.771 369.08 219.667 375.81 221.145 378.817C222.623 381.824 221.145 383.543 219.223 384.259C217.302 384.975 217.467 390.846 217.467 390.846L220.997 418.769C220.997 418.769 222.919 424.497 221.293 426.502C219.667 428.506 219.667 438.53 222.179 441.967C224.692 445.404 218.632 451.704 218.632 451.704C218.632 451.704 214.937 457.003 220.849 458.721C220.849 458.721 222.032 459.007 219.815 461.299C217.597 463.59 217.154 466.454 218.632 467.456C218.939 467.64 219.259 467.8 219.591 467.933C219.536 468.272 219.477 468.624 219.407 468.997C218.839 471.987 217.769 475.882 215.824 477.766C212.054 481.633 208.8 485.973 206.145 490.677C204.117 494.526 203.23 498.129 205.477 499.819C210.798 503.828 217.597 505.117 221.588 503.542C225.579 501.967 231.196 497.098 231.196 497.098L232.526 491.513C232.526 491.513 231.639 488.076 236.074 486.788C240.508 485.499 244.647 480.917 244.647 480.917V473.493C245.72 472.879 246.757 472.202 247.751 471.466C247.751 471.466 249.82 464.163 247.751 461.728C245.681 459.294 244.942 458.435 247.603 456.86C250.263 455.284 250.624 451.848 248.673 448.84C246.716 445.833 243.612 441.394 246.272 435.094C248.933 428.793 249.909 409.461 249.909 409.461C249.909 409.461 248.667 396.287 249.909 393.28C251.15 390.273 248.49 384.259 248.49 384.259C248.49 384.259 249.376 376.812 251.002 373.376C252.628 369.939 253.959 351.753 253.959 351.753C253.959 351.753 256.915 344.02 256.915 339.008C256.915 333.997 252.333 321.968 259.132 318.818C259.132 318.818 262.088 321.395 260.906 331.705C260.906 331.705 264.305 343.734 264.305 347.457C264.305 351.18 266.818 364.641 266.818 364.641C266.818 364.641 267.114 368.937 268.148 370.512C269.183 372.087 268.148 376.383 268.148 376.383C268.148 376.383 271.991 379.963 270.957 382.254C269.922 384.545 271.134 389.712 271.134 389.712L270.217 421.776C270.217 421.776 267.557 435.523 273.765 443.829C273.765 443.829 271.548 456 270.217 456.86C268.887 457.719 275.095 465.165 275.095 465.165C275.095 465.165 273.375 469.989 276.869 470.225V478.196C278.082 480.342 279.746 482.199 281.747 483.637C284.998 485.929 283.668 493.804 283.668 493.804C283.668 493.804 287.807 503.828 298.745 501.68C309.683 499.532 311.161 498.53 310.569 494.95C310.357 493.644 309.884 491.313 309.204 488.667C308.027 484.067 306.224 478.517 304.066 475.779C300.666 471.466 297.858 462.444 297.858 462.444C297.858 462.444 296.528 459.437 297.858 458.435C299.188 457.432 298.597 455.571 298.597 455.571C298.597 455.571 299.892 451.848 298.727 449.557C297.562 447.265 300.962 442.54 300.962 442.54L299.927 420.488L300.962 388.411C300.962 388.411 296.38 383.113 298.301 379.963C300.223 376.812 296.084 372.373 296.084 372.373C296.084 372.373 295.641 372.23 296.823 368.65C297.531 366.541 297.425 364.242 296.528 362.206C296.528 362.206 294.015 353.328 298.449 346.598C298.449 346.598 300.371 337.72 300.962 333.137C301.37 329.953 303.924 318.056 305.444 311.096C305.529 310.703 305.612 310.327 305.691 309.967C307.879 310.086 309.535 310.226 309.535 310.226C309.535 310.226 306.135 286.598 309.535 281.73C312.934 276.861 306.874 239.63 306.874 239.63C306.874 239.63 305.426 233.123 304.533 226.484C304.482 226.106 304.436 225.728 304.388 225.35C307.133 225.13 309.887 225.069 312.639 225.167C319.734 225.596 326.681 222.876 326.829 220.155C326.976 217.434 330.819 206.694 331.411 204.26C332.002 201.826 332.445 193.52 331.411 191.515Z" fill="url(#paint0_linear_34_923)"/>
<path d="M245.164 467.759V481.018C245.164 481.018 241.176 485.58 236.903 486.864C232.631 488.147 233.485 491.569 233.485 491.569L232.203 497.129C232.203 497.129 226.791 501.976 222.946 503.545C219.1 505.113 212.549 503.83 207.422 499.838C205.257 498.155 206.111 494.568 208.065 490.736C210.611 486.069 213.745 481.749 217.391 477.882C219.266 476.005 220.297 472.127 220.844 469.15C221.248 466.921 221.379 465.193 221.379 465.193L245.164 467.759Z" fill="#4C495A"/>
<path opacity="0.1" d="M245.164 477.654V481.018C245.164 481.018 241.176 485.581 236.903 486.864C232.631 488.147 233.485 491.569 233.485 491.569L232.203 497.129C232.203 497.129 226.791 501.976 222.946 503.545C219.1 505.113 212.549 503.83 207.422 499.838C205.257 498.155 206.111 494.568 208.065 490.736C207.974 494.762 209.165 499.285 214.97 499.125C221.236 498.926 227.274 496.728 232.203 492.852C232.203 492.852 232.061 483.442 238.612 481.303C241.007 480.512 243.23 479.274 245.164 477.654Z" fill="black"/>
<path d="M297.291 501.691C286.752 503.83 282.764 493.85 282.764 493.85C282.764 493.85 284.046 486.008 280.912 483.727C278.975 482.28 277.372 480.432 276.212 478.309V465.193L289.03 456.068L295.969 462.216L296.437 462.626C296.437 462.626 299.143 471.608 302.418 475.903C304.498 478.629 306.235 484.155 307.369 488.734C308.024 491.369 308.48 493.69 308.685 494.99C309.255 498.555 307.83 499.553 297.291 501.691Z" fill="#4C495A"/>
<path opacity="0.1" d="M297.291 501.691C286.752 503.83 282.764 493.85 282.764 493.85C282.764 493.85 284.046 486.008 280.912 483.727C278.975 482.28 277.372 480.433 276.212 478.309V473.228C278.246 475.378 282.08 479.541 282.906 481.303C284.046 483.727 284.188 492.567 289.458 494.135C294.727 495.703 304.982 497.129 305.837 493.137C306.192 491.62 306.706 490.144 307.369 488.734C308.024 491.369 308.48 493.69 308.685 494.99C309.255 498.555 307.83 499.553 297.291 501.691Z" fill="black"/>
<path opacity="0.1" d="M221.379 465.193L245.164 467.759V474.768C242.481 476.359 238.635 478.047 236.476 476.313C233.286 473.758 223.8 470.513 220.844 469.15C221.248 466.921 221.379 465.193 221.379 465.193Z" fill="black"/>
<path opacity="0.1" d="M296.437 463.767C293.161 462.626 287.321 467.616 279.63 470.753C278.561 471.257 277.394 471.518 276.212 471.517V465.193L289.031 456.068L295.969 462.216C296.076 462.746 296.233 463.265 296.437 463.767Z" fill="black"/>
<path d="M304.84 306.794C304.84 306.794 304.39 308.893 303.746 311.938C302.282 318.867 299.821 330.712 299.428 333.883C298.858 338.445 297.006 347.285 297.006 347.285C292.734 353.986 295.155 362.825 295.155 362.825C296.021 364.859 296.122 367.138 295.44 369.241C294.3 372.805 294.728 372.948 294.728 372.948C294.728 372.948 298.716 377.368 296.864 380.504C295.012 383.641 299.428 388.916 299.428 388.916L298.431 420.853L299.428 442.809C299.428 442.809 296.152 447.514 297.274 449.795C298.396 452.076 297.149 455.783 297.149 455.783C297.149 455.783 297.719 457.636 296.437 458.634C295.155 459.632 296.437 462.626 296.437 462.626C293.161 461.486 287.322 466.476 279.631 469.612C271.94 472.749 274.503 465.335 274.503 465.335C274.503 465.335 268.522 457.921 269.803 457.066C271.085 456.211 273.222 444.092 273.222 444.092C267.24 435.823 269.803 422.136 269.803 422.136L270.686 390.211C270.686 390.211 269.519 385.067 270.515 382.786C271.512 380.504 267.809 376.94 267.809 376.94C267.809 376.94 268.806 372.663 267.809 371.095C266.812 369.526 266.528 365.249 266.528 365.249C266.528 365.249 264.106 351.847 264.106 348.14C264.106 344.434 260.831 332.457 260.831 332.457C261.97 322.192 259.122 319.626 259.122 319.626C252.57 322.762 256.985 334.739 256.985 339.729C256.985 344.719 254.137 352.418 254.137 352.418C254.137 352.418 252.855 370.524 251.288 373.946C249.722 377.368 248.867 384.782 248.867 384.782C248.867 384.782 251.431 390.77 250.234 393.764C249.038 396.758 250.234 409.874 250.234 409.874C250.234 409.874 249.294 429.122 246.731 435.395C244.167 441.668 247.158 446.088 249.044 449.082C250.924 452.076 250.576 455.498 248.012 457.066C245.449 458.634 246.161 459.49 248.155 461.914C250.149 464.337 248.155 471.608 248.155 471.608C248.155 471.608 240.037 478.024 236.476 475.173C232.916 472.321 221.522 468.614 220.097 467.616C218.673 466.618 219.1 463.767 221.237 461.486C223.373 459.205 222.234 458.919 222.234 458.919C216.537 457.209 220.097 451.933 220.097 451.933C220.097 451.933 225.937 445.66 223.515 442.238C221.094 438.817 221.094 428.837 222.661 426.841C224.228 424.845 222.376 419.142 222.376 419.142L218.975 391.34C218.975 391.34 218.815 385.494 220.667 384.782C222.519 384.069 223.943 382.358 222.519 379.364C221.094 376.37 224.085 369.669 224.085 369.669C225.794 367.388 222.803 357.55 219.243 352.132C215.682 346.715 217.819 330.889 217.819 330.889C217.819 330.889 215.112 327.04 215.112 325.186C215.086 323.996 214.794 322.827 214.258 321.764C213.027 319.808 213.267 315.383 213.802 311.505C214.321 307.752 215.112 304.513 215.112 304.513L304.84 306.794Z" fill="#5F5D7E"/>
<path d="M276.924 145.259L248.867 151.818C248.867 151.818 235.052 140.127 238.47 133.853C239.644 131.698 240.162 128.019 240.339 124.13C240.475 121.09 240.401 117.914 240.27 115.228C240.071 111.344 239.752 108.475 239.752 108.475C239.752 108.475 268.521 92.2222 267.524 108.475C267.322 111.182 267.385 113.902 267.712 116.596C267.916 118.513 268.474 120.376 269.359 122.088C270.897 124.831 272.794 124.871 272.794 124.871L276.924 145.259Z" fill="#FDC2CC"/>
<path opacity="0.1" d="M267.712 116.596C263.658 119.508 258.737 120.958 253.753 120.709C248.768 120.461 244.016 118.528 240.27 115.228C240.071 111.344 239.752 108.475 239.752 108.475C239.752 108.475 268.521 92.2221 267.524 108.475C267.322 111.182 267.385 113.902 267.712 116.596Z" fill="black"/>
<path d="M254.849 120.166C267.041 120.166 276.924 110.272 276.924 98.0676C276.924 85.8628 267.041 75.9688 254.849 75.9688C242.657 75.9688 232.773 85.8628 232.773 98.0676C232.773 110.272 242.657 120.166 254.849 120.166Z" fill="#FDC2CC"/>
<path opacity="0.1" d="M276.924 145.259L248.867 151.818C248.867 151.818 235.052 140.127 238.47 133.853C239.644 131.698 240.162 128.019 240.339 124.13C240.958 127.512 242.772 130.558 245.449 132.713C251.858 136.99 250.861 142.265 250.861 142.265L262.397 141.837C261.685 137.133 265.958 134.566 267.382 133.996C268.806 133.426 268.094 130.859 268.094 130.859L269.359 122.088C270.897 124.831 272.794 124.871 272.794 124.871L276.924 145.259Z" fill="black"/>
<path opacity="0.1" d="M304.84 306.794C304.84 306.794 304.39 308.893 303.746 311.938C300.647 311.773 296.551 311.653 294.728 312.069C291.594 312.782 279.061 313.067 279.061 313.067L248.012 314.168V313.21C244.441 313.239 240.874 313.477 237.331 313.923C232.061 314.636 223.8 313.638 218.531 312.782C216.908 312.55 215.321 312.121 213.802 311.505C214.32 307.752 215.112 304.513 215.112 304.513L304.84 306.794Z" fill="black"/>
<path d="M302.418 216.261C301.968 218.924 302.299 223.338 302.868 227.695C303.729 234.305 305.124 240.783 305.124 240.783C305.124 240.783 310.964 277.852 307.688 282.699C304.412 287.547 307.688 311.071 307.688 311.071C307.688 311.071 297.861 310.216 294.727 310.929C291.594 311.642 279.061 311.927 279.061 311.927L248.012 313.028V312.069C244.441 312.098 240.874 312.336 237.33 312.782C232.061 313.495 223.8 312.497 218.53 311.642C213.261 310.786 211.124 309.075 211.694 308.22C212.264 307.365 211.124 283.983 211.124 283.983L210.982 265.02C210.982 265.02 210.839 251.619 214.115 248.625C215.454 247.404 216.554 242.893 217.391 237.989C218.593 230.888 219.243 222.961 219.243 222.961L197.594 164.934L197.167 163.794C197.167 163.794 203.433 154.099 202.436 149.394C201.439 144.689 208.276 140.554 208.276 140.554C208.276 140.554 221.236 134.851 222.091 133.141C222.946 131.43 231.918 131.002 231.918 131.002C231.918 131.002 237.046 128.293 237.929 126.537C238.144 126.046 238.472 125.614 238.887 125.275C239.302 124.937 239.792 124.703 240.316 124.592C240.919 128.016 242.743 131.104 245.449 133.283C251.858 137.56 250.861 142.836 250.861 142.836L262.397 142.408C261.685 137.703 265.958 135.137 267.382 134.566C268.806 133.996 268.094 131.43 268.094 131.43L269.427 122.197C270.042 120.663 274.361 126.537 274.361 126.537C274.361 126.537 285.327 130.289 286.039 130.574C286.752 130.859 296.009 133.711 296.009 133.711C296.009 133.711 307.403 141.125 307.403 142.978C307.403 144.832 313.67 154.812 313.67 154.812C313.67 154.812 313.596 155.211 313.459 155.941C312.012 163.799 303.461 210.13 302.418 216.261Z" fill="#7C3AED"/>
<path d="M256.843 193.164C256.843 193.164 232.203 186.605 229.782 185.037C227.361 183.469 213.118 192.593 230.494 204.997C230.494 204.997 251.741 209.417 257.425 204.997C263.109 200.577 256.843 193.164 256.843 193.164Z" fill="#FDC2CC"/>
<path opacity="0.1" d="M310.109 154.099L313.1 154.241L321.931 177.908C321.931 177.908 327.2 190.312 328.197 192.308C329.194 194.304 328.767 202.574 328.197 204.997C327.628 207.421 323.925 218.114 323.782 220.823C323.64 223.532 316.946 226.241 310.109 225.813C303.273 225.385 287.321 227.524 287.321 227.524C287.321 227.524 270.286 225.741 259.834 231.088C259.834 231.088 253.14 217.258 253.852 191.453C253.852 191.453 265.673 190.74 268.664 191.881C271.655 193.021 286.182 196.3 288.034 194.589C289.885 192.879 298.288 197.726 298.288 197.726C298.716 196.786 298.937 195.765 298.937 194.732C298.937 193.699 298.716 192.678 298.288 191.738C296.864 188.316 294.443 177.623 297.576 174.202C300.709 170.78 310.109 154.099 310.109 154.099Z" fill="black"/>
<path opacity="0.1" d="M302.868 227.695C295.798 228.174 287.891 229.235 287.891 229.235C287.891 229.235 270.857 227.45 260.403 232.799C260.403 232.799 253.709 218.969 254.421 193.164C254.421 193.164 266.243 192.451 269.233 193.591C272.224 194.732 286.752 198.011 288.603 196.3C290.455 194.589 298.858 199.437 298.858 199.437C299.285 198.497 299.507 197.476 299.507 196.443C299.507 195.41 299.285 194.389 298.858 193.449C297.433 190.027 295.012 179.334 298.146 175.912C301.279 172.491 310.679 155.81 310.679 155.81L313.459 155.941C312.012 163.799 303.461 210.13 302.418 216.26C301.968 218.924 302.299 223.338 302.868 227.695Z" fill="black"/>
<path d="M310.679 154.669L313.67 154.812L322.5 178.479C322.5 178.479 327.77 190.883 328.767 192.879C329.764 194.875 329.336 203.144 328.767 205.568C328.197 207.991 324.494 218.684 324.352 221.393C324.209 224.102 317.515 226.811 310.679 226.383C303.843 225.955 287.891 228.094 287.891 228.094C287.891 228.094 270.855 226.312 260.403 231.658C260.403 231.658 253.709 217.829 254.421 192.023C254.421 192.023 266.243 191.31 269.233 192.451C272.224 193.591 286.752 196.871 288.603 195.16C290.455 193.449 298.858 198.296 298.858 198.296C299.285 197.356 299.507 196.335 299.507 195.302C299.507 194.269 299.285 193.248 298.858 192.308C297.433 188.886 295.012 178.194 298.146 174.772C301.279 171.35 310.679 154.669 310.679 154.669Z" fill="#7C3AED"/>
<path d="M280.589 207.038L284.142 209.241L303.946 177.223L300.393 175.02L280.589 207.038Z" fill="#DFE6F5"/>
<path d="M314.101 172.887C317.601 167.229 317.225 160.649 313.26 158.192C309.295 155.735 303.244 158.33 299.744 163.988C296.244 169.647 296.621 176.226 300.585 178.683C304.55 181.141 310.601 178.546 314.101 172.887Z" fill="#DFE6F5"/>
<path opacity="0.1" d="M312.075 171.631C314.588 167.57 314.317 162.847 311.471 161.083C308.626 159.319 304.282 161.182 301.77 165.244C299.257 169.305 299.528 174.028 302.374 175.792C305.219 177.556 309.563 175.693 312.075 171.631Z" fill="black"/>
<path d="M270.467 223.402L274.02 225.605L286.343 205.683L282.789 203.48L270.467 223.402Z" fill="#53526B"/>
<path d="M249.579 224.815L258.267 222.391C258.267 222.391 301.137 223.532 286.752 205.853C286.752 205.853 279.203 198.581 263.394 204.427C247.585 210.272 243.17 210.985 243.17 210.985L249.579 224.815Z" fill="#FDC2CC"/>
<path opacity="0.1" d="M243.17 150.249C244.114 150.249 244.879 149.483 244.879 148.538C244.879 147.594 244.114 146.828 243.17 146.828C242.226 146.828 241.461 147.594 241.461 148.538C241.461 149.483 242.226 150.249 243.17 150.249Z" fill="black"/>
<path opacity="0.1" d="M272.509 149.251C273.453 149.251 274.218 148.485 274.218 147.54C274.218 146.596 273.453 145.83 272.509 145.83C271.565 145.83 270.8 146.596 270.8 147.54C270.8 148.485 271.565 149.251 272.509 149.251Z" fill="black"/>
<path d="M243.17 149.679C244.114 149.679 244.879 148.913 244.879 147.968C244.879 147.023 244.114 146.257 243.17 146.257C242.226 146.257 241.461 147.023 241.461 147.968C241.461 148.913 242.226 149.679 243.17 149.679Z" fill="white"/>
<path opacity="0.1" d="M245.591 173.916C246.535 173.916 247.3 173.15 247.3 172.206C247.3 171.261 246.535 170.495 245.591 170.495C244.647 170.495 243.882 171.261 243.882 172.206C243.882 173.15 244.647 173.916 245.591 173.916Z" fill="black"/>
<path opacity="0.1" d="M273.364 172.206C274.308 172.206 275.073 171.44 275.073 170.495C275.073 169.55 274.308 168.784 273.364 168.784C272.42 168.784 271.655 169.55 271.655 170.495C271.655 171.44 272.42 172.206 273.364 172.206Z" fill="black"/>
<path d="M245.591 173.346C246.535 173.346 247.3 172.58 247.3 171.635C247.3 170.69 246.535 169.924 245.591 169.924C244.647 169.924 243.882 170.69 243.882 171.635C243.882 172.58 244.647 173.346 245.591 173.346Z" fill="white"/>
<path opacity="0.1" d="M272.652 254.765C273.596 254.765 274.361 253.999 274.361 253.054C274.361 252.109 273.596 251.343 272.652 251.343C271.708 251.343 270.943 252.109 270.943 253.054C270.943 253.999 271.708 254.765 272.652 254.765Z" fill="black"/>
<path opacity="0.1" d="M250.159 254.765C251.102 254.765 251.868 253.999 251.868 253.054C251.868 252.109 251.102 251.343 250.159 251.343C249.215 251.343 248.449 252.109 248.449 253.054C248.449 253.999 249.215 254.765 250.159 254.765Z" fill="black"/>
<path d="M272.652 254.195C273.596 254.195 274.361 253.429 274.361 252.484C274.361 251.539 273.596 250.773 272.652 250.773C271.708 250.773 270.943 251.539 270.943 252.484C270.943 253.429 271.708 254.195 272.652 254.195Z" fill="white"/>
<path opacity="0.1" d="M251.868 283.412C252.812 283.412 253.577 282.646 253.577 281.701C253.577 280.757 252.812 279.991 251.868 279.991C250.924 279.991 250.159 280.757 250.159 281.701C250.159 282.646 250.924 283.412 251.868 283.412Z" fill="black"/>
<path opacity="0.1" d="M273.364 281.701C274.308 281.701 275.073 280.935 275.073 279.991C275.073 279.046 274.308 278.28 273.364 278.28C272.42 278.28 271.655 279.046 271.655 279.991C271.655 280.935 272.42 281.701 273.364 281.701Z" fill="black"/>
<path d="M251.868 282.842C252.812 282.842 253.577 282.076 253.577 281.131C253.577 280.186 252.812 279.42 251.868 279.42C250.924 279.42 250.159 280.186 250.159 281.131C250.159 282.076 250.924 282.842 251.868 282.842Z" fill="white"/>
<path d="M250.159 254.195C251.102 254.195 251.868 253.429 251.868 252.484C251.868 251.539 251.102 250.773 250.159 250.773C249.215 250.773 248.449 251.539 248.449 252.484C248.449 253.429 249.215 254.195 250.159 254.195Z" fill="white"/>
<path d="M273.364 281.131C274.308 281.131 275.073 280.365 275.073 279.42C275.073 278.475 274.308 277.709 273.364 277.709C272.42 277.709 271.655 278.475 271.655 279.42C271.655 280.365 272.42 281.131 273.364 281.131Z" fill="white"/>
<path d="M272.509 148.681C273.453 148.681 274.218 147.915 274.218 146.97C274.218 146.025 273.453 145.259 272.509 145.259C271.565 145.259 270.8 146.025 270.8 146.97C270.8 147.915 271.565 148.681 272.509 148.681Z" fill="white"/>
<path d="M273.364 171.635C274.308 171.635 275.073 170.869 275.073 169.924C275.073 168.979 274.308 168.213 273.364 168.213C272.42 168.213 271.655 168.979 271.655 169.924C271.655 170.869 272.42 171.635 273.364 171.635Z" fill="white"/>
<path opacity="0.1" d="M275.927 229.947C275.927 229.947 276.212 269.012 277.067 275.998C277.067 275.998 277.377 231.789 275.927 229.947Z" fill="black"/>
<path opacity="0.1" d="M283.191 248.054C282.604 248.054 294.87 293.82 295.44 297.099C296.009 300.378 286.609 248.054 283.191 248.054Z" fill="black"/>
<path opacity="0.1" d="M292.876 240.64C292.876 241.068 299.712 265.448 303.131 266.731C306.549 268.014 292.876 240.64 292.876 240.64Z" fill="black"/>
<path opacity="0.1" d="M319.794 193.164C319.794 193.164 305.267 193.812 304.84 195.912C304.412 198.011 319.794 193.164 319.794 193.164Z" fill="black"/>
<path opacity="0.1" d="M294.158 379.079C294.158 379.079 283.761 383.498 285.328 383.784C286.894 384.069 294.158 379.079 294.158 379.079Z" fill="black"/>
<path opacity="0.1" d="M272.652 372.52C272.247 371.608 279.63 376.227 279.63 376.797C279.63 377.368 273.221 373.803 272.652 372.52Z" fill="black"/>
<path opacity="0.1" d="M282.337 387.49C282.337 387.49 290.455 387.08 291.025 390.208C291.594 393.336 282.337 387.49 282.337 387.49Z" fill="black"/>
<path opacity="0.1" d="M223.943 387.473C223.943 387.473 232.773 385.744 233.485 387.473C234.197 389.201 223.943 387.473 223.943 387.473Z" fill="black"/>
<path opacity="0.1" d="M227.218 441.24C227.218 441.24 227.797 448.512 225.656 450.222C223.515 451.933 227.218 441.24 227.218 441.24Z" fill="black"/>
<path opacity="0.1" d="M226.14 456.638C228.927 456.923 243.597 454.357 243.455 456.638C243.312 458.919 226.14 456.638 226.14 456.638Z" fill="black"/>
<path opacity="0.1" d="M293.446 447.799C293.446 447.799 288.443 447.029 289.662 450.408L293.446 447.799Z" fill="black"/>
<path opacity="0.1" d="M200.443 163.223H197.737L193.606 178.336C193.606 178.336 192.182 183.611 190.758 184.894C189.334 186.178 192.04 197.869 192.04 197.869C192.04 197.869 190.473 206.138 189.191 208.276C187.909 210.415 191.185 215.69 191.185 215.69L197.737 231.088L215.112 235.65C215.112 235.65 245.734 242.351 247.158 243.349C248.582 244.347 249.864 242.922 250.861 233.654C251.858 224.387 254.564 206.423 256.7 205.568C256.7 205.568 239.609 207.421 238.185 207.136C236.761 206.851 229.924 207.278 229.924 207.278C229.924 207.278 220.952 206.708 219.527 207.564C218.103 208.419 221.379 203.423 221.379 203.423C221.979 201.135 221.979 198.731 221.379 196.443C220.382 192.593 219.812 148.966 200.443 163.223Z" fill="black"/>
<path opacity="0.1" d="M256.13 207.278C253.994 208.134 251.288 226.098 250.291 235.365C249.294 244.632 248.012 246.058 246.588 245.06C245.432 244.25 225.019 239.677 217.391 237.989C218.593 230.888 219.243 222.961 219.243 222.961L197.594 164.934H199.873C219.243 150.677 219.812 194.304 220.809 198.154C221.409 200.442 221.409 202.846 220.809 205.134C220.809 205.134 217.534 210.13 218.958 209.274C220.382 208.419 229.355 208.989 229.355 208.989C229.355 208.989 236.191 208.562 237.615 208.847C239.04 209.132 256.13 207.278 256.13 207.278Z" fill="black"/>
<path d="M199.873 163.794H197.167L193.037 178.906C193.037 178.906 191.612 184.182 190.188 185.465C188.764 186.748 191.47 198.439 191.47 198.439C191.47 198.439 189.903 206.708 188.621 208.847C187.34 210.985 190.615 216.26 190.615 216.26L197.167 231.658L214.543 236.221C214.543 236.221 245.164 242.922 246.588 243.92C248.012 244.918 249.294 243.492 250.291 234.225C251.288 224.958 253.994 206.993 256.131 206.138C256.131 206.138 239.04 207.991 237.615 207.706C236.191 207.421 229.355 207.849 229.355 207.849C229.355 207.849 220.382 207.278 218.958 208.134C217.534 208.989 220.809 203.993 220.809 203.993C221.409 201.705 221.409 199.301 220.809 197.013C219.812 193.164 219.243 149.536 199.873 163.794Z" fill="#7C3AED"/>
<path opacity="0.1" d="M209.131 215.405C209.131 215.405 201.297 230.233 199.873 228.522C198.449 226.811 209.131 215.405 209.131 215.405Z" fill="black"/>
<path opacity="0.1" d="M201.012 206.962C201.012 206.962 193.749 212.981 197.167 214.55C200.585 216.118 201.012 206.962 201.012 206.962Z" fill="black"/>
<path opacity="0.1" d="M207.849 199.579C208.418 199.722 218.388 201.704 218.53 202.567C218.673 203.429 207.849 199.579 207.849 199.579Z" fill="black"/>
<path opacity="0.1" d="M276.987 95.1363C276.677 95.2454 276.413 95.4552 276.237 95.7323C276.06 96.0093 275.981 96.3376 276.013 96.6647C275.432 97.178 274.617 96.5735 274.144 95.9176C273.666 95.2675 273.125 94.4634 272.401 94.5546C272.057 94.6644 271.724 94.8037 271.404 94.971C270.265 95.3359 269.302 93.9958 268.664 92.821C267.553 90.7622 266.442 88.7054 265.331 86.6504C263.104 87.945 260.472 86.5877 258.261 85.2475C256.051 83.9073 253.419 82.5443 251.186 83.8389C247.91 85.7322 247.79 92.0454 244.395 93.6023C243.301 94.1041 242.03 93.9957 241.016 94.6858C240.014 95.3701 239.472 96.6875 239.022 97.9479C238.856 98.6653 238.465 99.3107 237.906 99.7899C237.551 99.9757 237.156 100.072 236.755 100.069C235.748 100.241 234.713 100.095 233.793 99.653C233.31 99.3494 232.945 98.89 232.759 98.3508C232.572 97.8116 232.575 97.2248 232.767 96.6875C232.794 96.6306 232.825 96.5754 232.858 96.5221C233.223 96.0805 233.551 95.6093 233.838 95.1135C234.18 94.2068 233.69 93.1517 233.798 92.1708C233.975 90.4942 235.747 89.6102 236.049 87.9621C236.174 87.3176 236.043 86.6276 236.163 85.9775C236.179 85.8923 236.202 85.8084 236.231 85.7265L235.188 86.4451C236.356 85.0821 236.943 83.1887 237.798 81.5349C238.747 79.7241 240.053 78.1248 241.638 76.8339C243.222 75.5429 245.051 74.5871 247.015 74.0241C250.73 72.9406 254.655 73.2371 258.404 74.1553C261.968 75.0443 265.383 76.4527 268.538 78.3355C269.666 78.9407 270.667 79.7556 271.489 80.7365C272.178 81.7535 272.764 82.8367 273.238 83.97C274.344 86.2626 277.363 88.384 274.959 88.7034C272.959 88.9715 274.782 90.3744 275.831 91.3211C276.067 91.5067 276.271 91.7302 276.434 91.9826C276.609 92.3433 276.688 92.7423 276.666 93.1422C276.644 93.5422 276.521 93.93 276.309 94.2695C275.905 94.7828 277.545 94.8854 276.987 95.1363Z" fill="black"/>
<path d="M276.987 94.566C276.677 94.6751 276.413 94.8849 276.237 95.162C276.06 95.439 275.981 95.7673 276.013 96.0944C275.432 96.6077 274.617 96.0032 274.144 95.3473C273.666 94.6972 273.125 93.8931 272.401 93.9843C272.057 94.0941 271.724 94.2334 271.404 94.4007C270.265 94.7656 269.302 93.4255 268.664 92.2507C267.553 90.1919 266.442 88.1351 265.331 86.0801C263.104 87.3747 260.472 86.0174 258.261 84.6772C256.051 83.337 253.419 81.974 251.186 83.2686C247.91 85.1619 247.79 91.4751 244.395 93.032C243.301 93.5338 242.03 93.4255 241.016 94.1155C240.014 94.7998 239.473 96.1172 239.022 97.3776C238.856 98.095 238.465 98.7404 237.906 99.2196C237.551 99.4054 237.156 99.5014 236.755 99.4991C235.748 99.6703 234.713 99.5249 233.793 99.0827C233.31 98.7791 232.945 98.3198 232.759 97.7805C232.572 97.2413 232.575 96.6545 232.767 96.1172C232.794 96.0603 232.825 96.0051 232.858 95.9519C233.223 95.5102 233.551 95.0391 233.838 94.5432C234.18 93.6365 233.69 92.5814 233.798 91.6005C233.975 89.9239 235.747 89.0399 236.049 87.3918C236.174 86.7473 236.043 86.0573 236.163 85.4072C236.179 85.322 236.202 85.2381 236.231 85.1562L235.188 85.8748C236.356 84.5118 236.943 82.6185 237.798 80.9646C238.747 79.1538 240.053 77.5546 241.638 76.2636C243.222 74.9726 245.051 74.0168 247.015 73.4538C250.73 72.3703 254.655 72.6668 258.404 73.585C261.968 74.474 265.383 75.8824 268.538 77.7652C269.666 78.3704 270.667 79.1853 271.489 80.1662C272.178 81.1832 272.764 82.2664 273.238 83.3997C274.344 85.6923 277.363 87.8138 274.959 88.1331C272.959 88.4012 274.782 89.8041 275.831 90.7508C276.067 90.9364 276.271 91.1599 276.434 91.4123C276.609 91.773 276.688 92.172 276.666 92.5719C276.644 92.9719 276.522 93.3597 276.309 93.6992C275.905 94.2125 277.545 94.3151 276.987 94.566Z" fill="#865A61"/>
<path opacity="0.1" d="M275.831 90.7508L275.603 93.1517C275.603 93.1517 251.698 62.8236 233.103 97.0696C233.103 97.0696 233.012 96.6533 232.858 95.9519C233.223 95.5102 233.551 95.0391 233.838 94.5432C234.18 93.6365 233.69 92.5814 233.798 91.6005C233.975 89.9239 235.747 89.0399 236.049 87.3918C236.174 86.7473 236.043 86.0573 236.163 85.4072C236.179 85.322 236.202 85.2381 236.231 85.1562L235.188 85.8748C236.356 84.5118 236.943 82.6185 237.798 80.9646C238.747 79.1538 240.053 77.5546 241.638 76.2636C243.222 74.9726 245.051 74.0168 247.015 73.4538C250.73 72.3703 254.655 72.6668 258.404 73.585C261.968 74.474 265.383 75.8824 268.539 77.7652C269.666 78.3704 270.667 79.1853 271.49 80.1662C272.178 81.1832 272.764 82.2664 273.239 83.3997C274.344 85.6923 277.363 87.8138 274.959 88.1331C272.959 88.4012 274.782 89.8041 275.831 90.7508Z" fill="black"/>
<g opacity="0.1">
<path d="M276.42 94.2554C276.302 94.388 276.216 94.5461 276.169 94.7173C276.122 94.8885 276.115 95.0682 276.149 95.2425C275.568 95.7558 274.753 95.1513 274.28 94.4954C273.802 93.8453 273.261 93.0412 272.537 93.1324C272.194 93.2422 271.86 93.3815 271.54 93.5487C270.401 93.9137 269.438 92.5735 268.8 91.3987C267.689 89.34 266.578 87.2831 265.467 85.2282C263.24 86.5228 260.608 85.1655 258.397 83.8253C256.187 82.4851 253.555 81.1221 251.322 82.4167C248.046 84.31 247.926 90.6231 244.531 92.18C243.437 92.6819 242.167 92.5735 241.153 93.2636C240.15 93.9479 239.609 95.2653 239.159 96.5256C238.992 97.2431 238.601 97.8885 238.042 98.3677C237.687 98.5535 237.292 98.6495 236.891 98.6472C235.884 98.8184 234.85 98.6729 233.929 98.2308C233.377 97.8645 232.981 97.3056 232.819 96.6631C232.706 97.174 232.751 97.7073 232.95 98.1914C233.148 98.6755 233.49 99.0873 233.929 99.3714C234.85 99.8135 235.884 99.959 236.891 99.7877C237.292 99.7901 237.687 99.6941 238.042 99.5083C238.601 99.0291 238.992 98.3837 239.159 97.6662C239.609 96.4059 240.15 95.0885 241.153 94.4042C242.167 93.7141 243.437 93.8225 244.531 93.3206C247.926 91.7637 248.046 85.4506 251.322 83.5572C253.555 82.2627 256.187 83.6257 258.397 84.9658C260.608 86.306 263.24 87.6633 265.467 86.3688C266.578 88.4218 267.689 90.4787 268.8 92.5393C269.438 93.7141 270.401 95.0543 271.54 94.6893C271.86 94.522 272.194 94.3827 272.537 94.273C273.261 94.1818 273.802 94.9859 274.28 95.636C274.753 96.2919 275.568 96.8964 276.149 96.3831C276.117 96.056 276.196 95.7277 276.373 95.4506C276.549 95.1736 276.814 94.9638 277.123 94.8547C277.567 94.6552 276.623 94.5486 276.42 94.2554Z" fill="black"/>
<path d="M274.557 88.5577C274.73 88.4884 274.911 88.4427 275.095 88.4218C276.155 88.281 276.16 87.7893 275.74 87.0877C275.54 87.1954 275.321 87.2613 275.095 87.2812C273.951 87.4346 274.06 87.9595 274.557 88.5577Z" fill="black"/>
<path d="M276.74 93.3347C276.819 92.967 276.817 92.5863 276.734 92.2195C276.683 92.4468 276.585 92.6608 276.445 92.8473C276.267 93.0737 276.487 93.2201 276.74 93.3347Z" fill="black"/>
<path d="M233.968 91.6919C233.955 91.7571 233.942 91.8215 233.935 91.8892C233.911 92.4028 233.949 92.9173 234.046 93.4222C234.113 92.845 234.087 92.2607 233.968 91.6919Z" fill="black"/>
<path d="M236.28 84.734C236.012 85.2425 235.692 85.7215 235.325 86.1635L236.244 85.5297C236.24 85.264 236.252 84.9982 236.28 84.734Z" fill="black"/>
</g>
<path d="M233.102 96.4993C233.102 96.4993 229.665 81.1164 230.759 78.6493C230.759 78.6493 227.79 72.5542 227.79 71.103C227.646 68.6813 226.893 66.3353 225.602 64.2823C224.04 61.8152 222.321 50.3506 231.696 47.5932C241.071 44.8359 248.259 42.3688 249.352 40.4823C250.446 38.5957 266.54 39.7567 270.915 47.0128C275.29 54.2689 278.103 52.8176 278.103 52.8176C278.103 52.8176 284.821 57.0262 284.821 60.7993C284.821 64.5725 282.79 66.4591 284.821 67.3298C286.853 68.2006 285.29 83.8737 276.384 84.3091L275.603 92.581C275.603 92.581 251.696 62.2506 233.102 96.4993Z" fill="#7C3AED"/>
<path opacity="0.1" d="M234.126 50.5909C234.126 50.5909 232.061 62.7096 235.835 66.7729L234.126 50.5909Z" fill="black"/>
<path opacity="0.1" d="M243.811 47.8107C243.811 47.8107 238.541 60.7848 239.823 63.2798L243.811 47.8107Z" fill="black"/>
<path opacity="0.1" d="M248.368 43.6761C248.368 43.6761 244.808 60.571 246.517 61.9254L248.368 43.6761Z" fill="black"/>
<path opacity="0.1" d="M254.493 48.2384C254.493 48.2384 250.078 59.074 251.858 60.571L254.493 48.2384Z" fill="black"/>
<path opacity="0.1" d="M262.824 49.5216C262.824 49.5216 257.626 58.3611 258.694 59.9294L262.824 49.5216Z" fill="black"/>
<path opacity="0.1" d="M273.506 58.1472C273.506 58.1472 267.952 59.6442 269.091 61.4264L273.506 58.1472Z" fill="black"/>
<path opacity="0.1" d="M278.776 67.3432C278.776 67.3432 273.791 69.767 274.717 71.0501L278.776 67.3432Z" fill="black"/>
<path opacity="0.1" d="M230.759 78.6493C230.759 78.6493 262.598 65.7031 276.384 84.3091C276.384 84.3091 259.65 70.0666 230.759 78.6493Z" fill="black"/>
<path d="M219.253 185.025L223.689 180.532L236.233 192.944L231.796 197.437L220.26 186.022L219.253 185.025Z" fill="#53526B"/>
<path d="M190.148 156.224C190.148 156.224 209.565 157.878 227.637 178.241L220.105 185.869L190.148 156.224Z" fill="#DFE6F5"/>
<path d="M248.389 192.633C248.389 192.633 229.726 185.823 227.892 184.194C226.059 182.566 215.271 192.041 228.432 204.922C228.432 204.922 244.525 209.511 248.831 204.922C253.136 200.332 248.389 192.633 248.389 192.633Z" fill="#FDC2CC"/>
<defs>
<linearGradient id="paint0_linear_34_923" x1="258.844" y1="504.195" x2="258.844" y2="37.6465" gradientUnits="userSpaceOnUse">
<stop stop-color="#808080" stop-opacity="0.25"/>
<stop offset="0.53514" stop-color="#808080" stop-opacity="0.12"/>
<stop offset="1" stop-color="#808080" stop-opacity="0.1"/>
</linearGradient>
</defs>
</svg>
