<svg width="1529" height="308" viewBox="0 0 1529 308" fill="none" xmlns="http://www.w3.org/2000/svg">
<path d="M348.266 240.833C317.113 243.562 285.704 240.842 255.343 232.784C214.642 222.005 180.609 205.218 154.188 182.889C104.211 140.653 65.9218 136.958 42.6068 141.293C17.3686 145.987 3.73042 160.842 3.59569 160.991L2.4811 159.904C2.61852 159.751 16.5354 144.562 42.2312 139.752C57.2999 136.932 73.4211 138.166 90.1484 143.423C111.008 149.978 132.876 162.844 155.143 181.663C181.39 203.844 215.225 220.527 255.709 231.249C330.028 250.93 410.705 237.599 477.054 194.673C499.022 180.459 521.058 170.146 542.55 164.02C569.651 156.294 595.9 155.263 620.572 160.951C674.788 173.452 710.729 169.419 731.333 163.837C753.563 157.813 763.103 148.791 763.197 148.701L764.237 149.866C763.842 150.246 754.321 159.247 731.725 165.37C710.959 170.998 674.762 175.067 620.253 162.498C565.061 149.774 512.357 173.703 477.865 196.019C445.079 217.333 408.499 231.616 370.255 238.034C362.925 239.263 355.595 240.196 348.266 240.833Z" fill="#3F3D56"/>
<path d="M346.906 260.687C355.393 259.95 361.651 252.19 360.884 243.355C360.117 234.52 352.615 227.955 344.128 228.692C335.641 229.428 329.382 237.188 330.149 246.023C330.916 254.859 338.418 261.424 346.906 260.687Z" fill="#7C3AED"/>
<path d="M579.438 176.083C587.925 175.347 594.183 167.587 593.416 158.752C592.649 149.916 585.147 143.351 576.66 144.088C568.173 144.825 561.914 152.585 562.681 161.42C563.448 170.255 570.951 176.82 579.438 176.083Z" fill="#7C3AED"/>
<path d="M78.9036 156.711C87.3908 155.974 93.6493 148.214 92.8823 139.379C92.1153 130.544 84.6132 123.979 76.126 124.715C67.6387 125.452 61.3803 133.212 62.1473 142.047C62.9143 150.882 70.4164 157.448 78.9036 156.711Z" fill="#7C3AED"/>
<path d="M1179.25 63.1586C1210.43 60.7848 1241.81 63.8636 1272.09 72.2672C1312.67 83.5096 1346.53 100.683 1372.71 123.31C1422.24 166.112 1460.49 170.243 1483.86 166.175C1509.14 161.77 1522.94 147.072 1523.08 146.924L1524.18 148.024C1524.04 148.175 1509.96 163.204 1484.22 167.72C1469.12 170.368 1453.01 168.949 1436.34 163.502C1415.55 156.71 1393.81 143.596 1371.75 124.526C1345.73 102.047 1312.08 84.98 1271.71 73.7981C1197.59 53.2707 1116.77 65.6789 1049.97 107.842C1027.85 121.803 1005.71 131.863 984.148 137.743C956.965 145.158 930.705 145.89 906.093 139.92C852.009 126.802 816.025 130.424 795.362 135.771C773.067 141.54 763.431 150.451 763.337 150.541L762.309 149.364C762.708 148.988 772.325 140.097 794.985 134.233C815.811 128.843 852.052 125.188 906.429 138.378C961.487 151.73 1014.44 128.406 1049.17 106.487C1082.19 85.5498 1118.92 71.6867 1157.23 65.7054C1164.57 64.5603 1171.91 63.7113 1179.25 63.1586Z" fill="#3F3D56"/>
<path d="M1180.82 43.3227C1172.32 43.9625 1165.98 51.6498 1166.66 60.4926C1167.33 69.3354 1174.76 75.9853 1183.26 75.3455C1191.75 74.7057 1198.09 67.0185 1197.42 58.1756C1196.75 49.3328 1189.32 42.6829 1180.82 43.3227Z" fill="#7C3AED"/>
<path d="M947.388 125.26C938.893 125.9 932.552 133.587 933.226 142.43C933.899 151.273 941.331 157.923 949.827 157.283C958.322 156.643 964.663 148.956 963.989 140.113C963.316 131.27 955.883 124.62 947.388 125.26Z" fill="#7C3AED"/>
<path d="M1447.72 150.345C1439.23 150.985 1432.89 158.672 1433.56 167.515C1434.23 176.358 1441.67 183.007 1450.16 182.368C1458.66 181.728 1465 174.041 1464.32 165.198C1463.65 156.355 1456.22 149.705 1447.72 150.345Z" fill="#7C3AED"/>
</svg>
